<svg width="12" height="7" viewBox="0 0 12 7" fill="none" xmlns="http://www.w3.org/2000/svg">
<path d="M5.89175 6.47406C5.757 6.46678 5.62896 6.41106 5.5296 6.31639L1.00998 1.99263L1.0099 1.99272C0.897053 1.88423 0.830442 1.73368 0.824623 1.57424C0.818884 1.41481 0.874418 1.25948 0.979102 1.14253C1.08379 1.02558 1.22905 0.956457 1.38289 0.95051C1.53673 0.944563 1.6866 1.00212 1.79944 1.1107L5.92422 5.05527L10.049 1.11048C10.1618 1.00199 10.3117 0.944348 10.4655 0.950381C10.6194 0.956329 10.7646 1.02536 10.8693 1.1424C10.974 1.25935 11.0296 1.41459 11.0238 1.57403C11.018 1.73346 10.9514 1.884 10.8385 1.9925L6.31891 6.31626H6.31883C6.20299 6.42676 6.04867 6.48374 5.89154 6.47385L5.89175 6.47406Z" fill="black"/>
</svg>
