<?xml version="1.0" encoding="UTF-8"?>
<svg width="16px" height="12px" viewBox="0 0 16 12" version="1.1" xmlns="http://www.w3.org/2000/svg" xmlns:xlink="http://www.w3.org/1999/xlink">
    <title>Path Copy 8</title>
    <g id="Symbols" stroke="none" stroke-width="1" fill="none" fill-rule="evenodd">
        <g id="Post-Grid" transform="translate(-137.000000, -433.000000)" fill="#33ACED" fill-rule="nonzero">
            <path d="M141.199219,436.778292 L144.452453,433.745436 L144.452453,445.333473 C144.452453,445.763128 144.82522,446.110642 145.286095,446.110642 C145.74697,446.110642 146.119736,445.763128 146.119736,445.333473 L146.119736,433.751755 L149.372971,436.78461 C149.535633,436.936253 149.745737,437.012075 149.96262,437.012075 C150.179502,437.012075 150.389607,436.936253 150.552269,436.78461 C150.877592,436.481325 150.877592,435.994804 150.552269,435.691519 L145.882521,431.338107 C145.557198,431.034821 145.035325,431.034821 144.710001,431.338107 L140.040254,435.691519 C139.71493,435.994804 139.71493,436.481325 140.040254,436.78461 C140.345245,437.081578 140.873895,437.081578 141.199219,436.778292 Z" id="Path-Copy-8" transform="translate(145.296261, 438.610642) rotate(-270.000000) translate(-145.296261, -438.610642) "></path>
        </g>
    </g>
</svg>