<?xml version="1.0" encoding="UTF-8"?>
<svg width="146px" height="24px" viewBox="0 0 146 24" version="1.1" xmlns="http://www.w3.org/2000/svg" xmlns:xlink="http://www.w3.org/1999/xlink">
    <title>palermo</title>
    <g id="Page-1" stroke="none" stroke-width="1" fill="none" fill-rule="evenodd">
        <path d="M4.736,23 L4.736,15.384 L9.088,15.384 C11.456,15.384 13.2586667,14.68 14.496,13.272 C15.7333333,11.864 16.352,10.168 16.352,8.184 C16.352,6.2 15.7333333,4.49866667 14.496,3.08 C13.2586667,1.66133333 11.456,0.952 9.088,0.952 L9.088,0.952 L0.032,0.952 L0.032,23 L4.736,23 Z M8.864,11.288 L4.736,11.288 L4.736,5.08 L8.992,5.08 C9.80266667,5.08 10.448,5.40533333 10.928,6.056 C11.408,6.70666667 11.648,7.416 11.648,8.184 C11.648,8.97333333 11.3973333,9.688 10.896,10.328 C10.3946667,10.968 9.71733333,11.288 8.864,11.288 L8.864,11.288 Z M20.896,23 L22.848,17.784 L30.464,17.784 L32.416,23 L37.344,23 L29.184,0.952 L24.096,0.952 L15.904,23 L20.896,23 Z M28.96,13.72 L24.384,13.72 L26.624,6.04 L28.96,13.72 Z M52.736,23 L52.736,18.872 L44.48,18.872 L44.48,0.952 L39.776,0.952 L39.776,23 L52.736,23 Z M70.368,23 L70.368,18.872 L60.8,18.872 L60.8,14.168 L68.928,14.168 L68.928,10.104 L60.8,10.104 L60.8,5.08 L70.08,5.08 L70.08,0.952 L56.128,0.952 L56.128,23 L70.368,23 Z M79.264,23 L79.264,15.384 L80.32,15.384 L85.248,23 L90.88,23 L85.408,15.192 C87.2,14.808 88.5653333,13.9653333 89.504,12.664 C90.4426667,11.3626667 90.912,9.86933333 90.912,8.184 C90.912,6.2 90.2773333,4.49866667 89.008,3.08 C87.7386667,1.66133333 85.9306667,0.952 83.584,0.952 L83.584,0.952 L74.56,0.952 L74.56,23 L79.264,23 Z M83.232,11.288 L79.264,11.288 L79.264,5.08 L83.36,5.08 C84.1706667,5.08 84.816,5.40533333 85.296,6.056 C85.776,6.70666667 86.016,7.416 86.016,8.184 C86.016,8.97333333 85.7653333,9.688 85.264,10.328 C84.7626667,10.968 84.0853333,11.288 83.232,11.288 L83.232,11.288 Z M98.432,23 L100,9.784 L105.184,20.472 L108.8,20.472 L113.952,9.784 L115.488,23 L120.192,23 L117.504,0.952 L113.568,0.952 L106.976,15.16 L100.32,0.952 L96.448,0.952 L93.728,23 L98.432,23 Z M134.048,23.32 C137.162667,23.32 139.808,22.216 141.984,20.008 C144.16,17.8 145.248,15.1386667 145.248,12.024 C145.248,8.888 144.165333,6.216 142,4.008 C139.834667,1.8 137.184,0.696 134.048,0.696 C130.933333,0.696 128.293333,1.8 126.128,4.008 C123.962667,6.216 122.88,8.888 122.88,12.024 C122.88,15.1386667 123.962667,17.8 126.128,20.008 C128.293333,22.216 130.933333,23.32 134.048,23.32 Z M134.048,18.68 C132.234667,18.68 130.698667,18.0346667 129.44,16.744 C128.181333,15.4533333 127.552,13.88 127.552,12.024 C127.552,10.168 128.181333,8.58933333 129.44,7.288 C130.698667,5.98666667 132.234667,5.336 134.048,5.336 C135.861333,5.336 137.402667,5.98666667 138.672,7.288 C139.941333,8.58933333 140.576,10.168 140.576,12.024 C140.576,13.8586667 139.941333,15.4266667 138.672,16.728 C137.402667,18.0293333 135.861333,18.68 134.048,18.68 Z" id="palermo" fill="#000000" fill-rule="nonzero"></path>
    </g>
</svg>