<?xml version="1.0" encoding="utf-8"?>
<!-- Generator: Adobe Illustrator 26.3.1, SVG Export Plug-In . SVG Version: 6.00 Build 0)  -->
<svg version="1.1" id="Layer_1" xmlns="http://www.w3.org/2000/svg" xmlns:xlink="http://www.w3.org/1999/xlink" x="0px" y="0px"
	 viewBox="0 0 216 288" style="enable-background:new 0 0 216 288;" xml:space="preserve">
<style type="text/css">
	.st0{fill:#282560;}
	.st1{fill:#EE4037;}
	.st2{fill:url(#SVGID_1_);}
	.st3{fill:url(#SVGID_00000112609598128038404410000005015105902049680781_);}
	.st4{fill:url(#SVGID_00000119824602747688567170000001712219401666759607_);}
	.st5{fill:url(#SVGID_00000060740746039515862950000006209505640761169299_);}
	.st6{fill:url(#SVGID_00000162327100040637170830000015708010927288336828_);}
	.st7{fill:#6A2263;}
	.st8{fill:#884390;}
	.st9{fill:#EA2B7B;}
	.st10{fill:#F05A28;}
	.st11{fill:#FAA240;}
	.st12{fill:url(#SVGID_00000172405386925405406440000004428499503608120470_);}
	.st13{fill:url(#SVGID_00000171693901331678906350000005116627083651419794_);}
	.st14{fill:url(#SVGID_00000057850249538329061320000001409976974654476455_);}
	.st15{fill:#B8D232;}
	.st16{fill:url(#SVGID_00000120556135614021505140000002467178923260435884_);}
	.st17{fill:#1B75BA;}
	.st18{fill:#36B24A;}
	.st19{fill:#27B373;}
	.st20{fill:#8AC440;}
	.st21{fill:#F7EA2F;}
	.st22{fill:#FBED1D;}
	.st23{fill:url(#SVGID_00000018195238648501327380000015107287090868191912_);}
</style>
<g>
	<rect x="30.62101" y="235.88744" class="st0" width="153.96602" height="1.28973"/>
	<g>
		<path class="st0" d="M44.05228,199.21707l9.67512,27.69736h-4.62918l-2.99743-8.84081h-8.72701l-3.0351,8.84081h-3.71793
			l9.71279-27.69736H44.05228z M41.77536,204.68056l-3.37651,10.3203h6.67769L41.77536,204.68056z"/>
		<path class="st0" d="M66.24768,199.21707h4.78065v24.58612h11.71718l-0.4103,3.11124H66.77904v-25.26897L66.24768,199.21707z"/>
		<path class="st0" d="M95.42451,199.21707h4.78065v24.58612h11.71718l-0.4103,3.11124H95.95588v-25.26897L95.42451,199.21707z"/>
		<path class="st0" d="M143.00348,199.21707h4.78065v27.69736h-4.2493v-25.26897c0-0.02484-0.04488-0.22119-0.13304-0.58826
			c-0.08896-0.36627-0.1707-0.74615-0.24684-1.13806C143.07962,199.52724,143.02832,199.29321,143.00348,199.21707z"/>
		<path class="st0" d="M168.1963,199.25473l11.57214,17.7193c0.25246,0.37909,0.50572,0.77179,0.75897,1.17572
			c0.25247,0.40474,0.50572,0.79665,0.75899,1.17653c-0.02565-0.45522-0.05692-0.91045-0.09538-1.36647
			c-0.03766-0.45522-0.0569-0.91045-0.0569-1.36568v-17.3394h3.45265v27.84964h-3.0351l-13.39305-20.48911
			c-0.22762-0.37909-0.46886-0.76459-0.72131-1.15649c-0.25325-0.39191-0.50652-0.76538-0.75897-1.11963
			c0.05049,0.40474,0.08896,0.81589,0.11382,1.23344c0.02484,0.41675,0.03847,0.84071,0.03847,1.27029v20.07155h-3.45265v-25.23129
			l-0.53137-2.42841H168.1963z"/>
	</g>
	<g>
		<path class="st0" d="M32.99085,248.59174h-2.17358v-0.8446h5.5626v0.8446h-2.20462v6.67593h-1.1844V248.59174z"/>
		<path class="st0" d="M40.43869,247.38651v3.31714c0.20584-0.19196,0.43782-0.35532,0.69594-0.48927
			c0.2573-0.13397,0.53339-0.20094,0.82908-0.20094c0.38473,0,0.68859,0.07719,0.91158,0.23198
			c0.22299,0.15437,0.38309,0.36757,0.47948,0.63876c0.09557,0.27118,0.14376,0.58566,0.14376,0.94261v3.44089h-1.0096v-3.23505
			c0-0.18541-0.01389-0.36716-0.04084-0.54605c-0.02777-0.17847-0.09475-0.32755-0.20094-0.44803
			c-0.10701-0.12007-0.28344-0.18011-0.53094-0.18011c-0.13723,0-0.28671,0.03432-0.44844,0.10292
			c-0.16092,0.06862-0.31366,0.14949-0.45824,0.2422c-0.14376,0.0927-0.26792,0.19031-0.37084,0.29364v3.77048h-1.0096v-7.29387
			l-0.13396-0.5873H40.43869z"/>
		<path class="st0" d="M49.09299,250.01343c0.43946,0,0.80539,0.09271,1.097,0.27812
			c0.29242,0.18542,0.50888,0.43292,0.64938,0.7421c0.1405,0.30876,0.21156,0.65591,0.21156,1.04024
			c0,0.10332-0.00572,0.2095-0.01552,0.31937c-0.01062,0.10986-0.02614,0.22014-0.04656,0.32959h-3.20442
			c0,0.6114,0.13723,1.08189,0.4125,1.41148c0.27446,0.32959,0.64203,0.4946,1.1019,0.4946
			c0.19931,0,0.40923-0.03268,0.62896-0.09802c0.21973-0.06494,0.44926-0.16296,0.69022-0.29324l0.32918,0.58649
			c-0.24015,0.19276-0.52195,0.3349-0.8446,0.42801c-0.32265,0.09312-0.63549,0.13887-0.93772,0.13887
			c-0.53502,0-0.9851-0.12007-1.3494-0.36023c-0.3643-0.24097-0.64039-0.55994-0.82908-0.95813
			c-0.18869-0.39821-0.28344-0.83807-0.28344-1.31877c0-0.35042,0.05146-0.6886,0.15438-1.01491
			c0.10292-0.32593,0.25567-0.61957,0.45824-0.88055c0.20257-0.26097,0.45171-0.46722,0.7474-0.61833
			C48.35785,250.08939,48.70174,250.01343,49.09299,250.01343z M49.02111,250.7449c-0.22708,0-0.42393,0.06371-0.5922,0.19072
			c-0.16908,0.12701-0.30223,0.28835-0.40188,0.48398c-0.09965,0.19603-0.16336,0.3933-0.19114,0.59261h2.15316
			c0.02124-0.24709-0.0049-0.46681-0.07678-0.65918c-0.07188-0.19237-0.18379-0.34184-0.3349-0.44844
			C49.42626,250.7984,49.24084,250.7449,49.02111,250.7449z"/>
		<path class="st0" d="M61.67216,247.74713l2.62692,7.52054h-1.2571l-0.81356-2.40024H59.8588l-0.82418,2.40024h-1.0096
			l2.63754-7.52054H61.67216z M61.05382,249.2305l-0.9173,2.80212h1.81336L61.05382,249.2305z"/>
		<path class="st0" d="M69.1927,250.03426c0.21237,0,0.4321,0.03267,0.65918,0.09761
			c0.22626,0.06535,0.41903,0.16663,0.57668,0.30428c-0.00654-0.10986-0.0098-0.20952-0.0098-0.29897c0-0.08904,0-0.18542,0-0.28835
			v-1.87503l-0.1552-0.5873h1.16479v6.40802c0,0.14417,0.00817,0.3055,0.02532,0.48398
			c0.01715,0.17888,0.04819,0.35205,0.09312,0.52031c0.04411,0.16908,0.10129,0.31775,0.16991,0.44844l-1.05126,0.11354
			c-0.04084-0.11028-0.07678-0.21973-0.10782-0.33c-0.03104-0.11026-0.0531-0.22299-0.06699-0.34021
			c-0.16499,0.22667-0.38309,0.40147-0.65427,0.52563c-0.27119,0.12334-0.54483,0.18542-0.81928,0.18542
			c-0.36349,0-0.6796-0.07597-0.94752-0.22627c-0.26792-0.15193-0.49092-0.35612-0.6698-0.61343
			c-0.17889-0.25771-0.31285-0.54237-0.40189-0.85522c-0.08903-0.31242-0.13396-0.62978-0.13396-0.95282
			c0-0.48071,0.08577-0.92874,0.25812-1.3445c0.17153-0.41536,0.42883-0.74821,0.77272-0.99939
			C68.23783,250.15964,68.67075,250.03426,69.1927,250.03426z M69.25396,250.80698c-0.25403,0-0.46313,0.0584-0.62814,0.1748
			c-0.165,0.1172-0.29733,0.26996-0.39698,0.45865c-0.09966,0.18909-0.1699,0.3933-0.21074,0.61302
			c-0.04166,0.21973-0.06208,0.43251-0.06208,0.63876c0,0.21278,0.02205,0.42924,0.06698,0.64897
			c0.04492,0.21973,0.12007,0.42435,0.22708,0.61304c0.10619,0.18909,0.24668,0.3398,0.42229,0.45334
			c0.1748,0.11313,0.38963,0.16989,0.64366,0.16989c0.2132,0,0.4174-0.06331,0.61263-0.19072
			c0.19604-0.12703,0.35941-0.26956,0.4901-0.42761v-1.71004c0-0.25403-0.03839-0.49091-0.11354-0.71063
			c-0.07597-0.21973-0.1993-0.39699-0.37084-0.53053C69.76285,250.87396,69.53577,250.80698,69.25396,250.80698z"/>
		<path class="st0" d="M76.07449,250.14738v3.1938c0,0.17848,0.0147,0.36226,0.04574,0.55095
			c0.03104,0.1891,0.10129,0.34552,0.21156,0.46886c0.10945,0.12375,0.2818,0.18542,0.5146,0.18542
			c0.22707,0,0.43618-0.04779,0.62895-0.14417c0.19196-0.09598,0.34634-0.23322,0.46314-0.41209
			c0.11681-0.17848,0.17562-0.38432,0.17562-0.61794v-2.63754c0-0.00694-0.01062-0.05472-0.03104-0.14417
			c-0.02042-0.08904-0.03922-0.18175-0.05637-0.27814c-0.01715-0.09596-0.0294-0.15111-0.03676-0.16499h1.15418v3.98694
			c0,0.15112,0.02369,0.26138,0.07188,0.32959c0.04819,0.06903,0.12416,0.10333,0.22708,0.10333
			c0.09557,0,0.22626-0.03104,0.39126-0.09271l0.19604,0.61752c-0.14458,0.07597-0.30386,0.13968-0.47948,0.19115
			c-0.1748,0.05145-0.3447,0.07759-0.5097,0.07759c-0.19277,0-0.36594-0.05228-0.52032-0.15437
			c-0.15438-0.10374-0.25566-0.28589-0.30386-0.54646c-0.20584,0.2132-0.45007,0.38963-0.73188,0.53012
			c-0.28099,0.14131-0.57668,0.21156-0.88544,0.21156c-0.38472,0-0.69022-0.07761-0.9173-0.23198
			c-0.22626-0.15439-0.38963-0.36676-0.48928-0.63876c-0.09965-0.27119-0.14948-0.58527-0.14948-0.94263v-2.85359l-0.12334-0.5873
			H76.07449z"/>
		<path class="st0" d="M83.84171,247.38651v7.88116h-1.03002v-7.30408l-0.12334-0.57709H83.84171z"/>
		<path class="st0" d="M88.82763,248.67424c-0.04819,0.23361-0.08904,0.47743-0.12334,0.73146
			c-0.03431,0.25404-0.058,0.50154-0.07188,0.74168h1.29794l-0.1748,0.72127h-1.12314v3.09047
			c0,0.10332,0.01144,0.20789,0.03594,0.31447c0.02369,0.1066,0.07188,0.19032,0.14376,0.25241
			c0.0727,0.06166,0.18052,0.09271,0.3251,0.09271c0.10946,0,0.21973-0.01022,0.32919-0.03105
			c0.11027-0.02042,0.21646-0.04451,0.31938-0.07187l0.14458,0.65958c-0.17154,0.05473-0.34879,0.10292-0.53094,0.14377
			c-0.18216,0.04166-0.37247,0.06207-0.57178,0.06207c-0.43945,0-0.75148-0.11189-0.9369-0.3349
			c-0.18542-0.2238-0.27853-0.55136-0.27853-0.98387v-3.19379h-0.80376v-0.58731c0.28181-0.00653,0.50807-0.09761,0.68042-0.27281
			c0.17154-0.17522,0.3055-0.38637,0.40188-0.63387c0.09557-0.24709,0.16418-0.4807,0.20584-0.70042H88.82763z"/>
		<path class="st0" d="M97.20339,247.74713h1.29794v6.67595h3.07046v0.84459h-4.22382v-6.86136L97.20339,247.74713z"/>
		<path class="st0" d="M105.87811,248.36507c0,0.19237-0.06698,0.35736-0.20094,0.49458
			c-0.13396,0.13763-0.29733,0.20625-0.48927,0.20625c-0.19277,0-0.35614-0.06862-0.4901-0.20625
			c-0.13315-0.13722-0.20013-0.30222-0.20013-0.49458c0-0.19196,0.06698-0.35532,0.20013-0.48929
			c0.13396-0.13396,0.29733-0.20093,0.4901-0.20093c0.19195,0,0.35532,0.06697,0.48927,0.20093
			C105.81113,248.00975,105.87811,248.17311,105.87811,248.36507z M105.70249,250.14738v5.12029h-1.0194v-4.53299l-0.12415-0.5873
			H105.70249z"/>
		<path class="st0" d="M110.68923,248.67424c-0.04819,0.23361-0.08904,0.47743-0.12334,0.73146
			c-0.03431,0.25404-0.058,0.50154-0.07188,0.74168h1.29794l-0.1748,0.72127h-1.12314v3.09047
			c0,0.10332,0.01144,0.20789,0.03594,0.31447c0.02369,0.1066,0.07188,0.19032,0.14376,0.25241
			c0.0727,0.06166,0.18052,0.09271,0.3251,0.09271c0.10946,0,0.21973-0.01022,0.32919-0.03105
			c0.11027-0.02042,0.21646-0.04451,0.31938-0.07187l0.14458,0.65958c-0.17153,0.05473-0.34879,0.10292-0.53094,0.14377
			c-0.18215,0.04166-0.37247,0.06207-0.57178,0.06207c-0.43945,0-0.75148-0.11189-0.9369-0.3349
			c-0.18542-0.2238-0.27854-0.55136-0.27854-0.98387v-3.19379h-0.80376v-0.58731c0.28181-0.00653,0.50806-0.09761,0.68042-0.27281
			c0.17153-0.17522,0.30549-0.38637,0.40188-0.63387c0.09557-0.24709,0.16418-0.4807,0.20584-0.70042H110.68923z"/>
		<path class="st0" d="M116.64391,250.01343c0.43945,0,0.8054,0.09271,1.09701,0.27812
			c0.29242,0.18542,0.50888,0.43292,0.64938,0.7421c0.1405,0.30876,0.21156,0.65591,0.21156,1.04024
			c0,0.10332-0.00571,0.2095-0.01552,0.31937c-0.01062,0.10986-0.02614,0.22014-0.04656,0.32959h-3.20441
			c0,0.6114,0.13723,1.08189,0.4125,1.41148c0.27445,0.32959,0.64203,0.4946,1.1019,0.4946
			c0.19931,0,0.40923-0.03268,0.62896-0.09802c0.21973-0.06494,0.44926-0.16296,0.69022-0.29324l0.32918,0.58649
			c-0.24014,0.19276-0.52195,0.3349-0.8446,0.42801c-0.32265,0.09312-0.6355,0.13887-0.93772,0.13887
			c-0.53503,0-0.98509-0.12007-1.3494-0.36023c-0.3643-0.24097-0.64039-0.55994-0.82908-0.95813
			c-0.18869-0.39821-0.28344-0.83807-0.28344-1.31877c0-0.35042,0.05146-0.6886,0.15438-1.01491
			c0.10292-0.32593,0.25567-0.61957,0.45824-0.88055c0.20258-0.26097,0.45171-0.46722,0.7474-0.61833
			C115.90877,250.08939,116.25266,250.01343,116.64391,250.01343z M116.57204,250.7449c-0.22708,0-0.42393,0.06371-0.5922,0.19072
			c-0.16908,0.12701-0.30223,0.28835-0.40188,0.48398c-0.09966,0.19603-0.16337,0.3933-0.19114,0.59261h2.15316
			c0.02124-0.24709-0.0049-0.46681-0.07678-0.65918s-0.18378-0.34184-0.3349-0.44844
			C116.97718,250.7984,116.79176,250.7449,116.57204,250.7449z"/>
		<path class="st0" d="M122.56756,250.05467c0.13723,0.31612,0.21973,0.65265,0.2475,1.0096
			c0.17154-0.28833,0.41005-0.52888,0.71636-0.72125c0.30549-0.19196,0.6265-0.28835,0.96304-0.28835l-0.20584,1.04065
			c-0.31612,0-0.59138,0.08249-0.82418,0.24709c-0.23362,0.16499-0.44681,0.3884-0.63876,0.6698v3.25546h-1.0096v-3.71901
			c0-0.13724-0.01062-0.29202-0.03104-0.46356c-0.02123-0.17152-0.05554-0.34019-0.10292-0.50479
			c-0.04819-0.16501-0.11354-0.3055-0.19604-0.42271L122.56756,250.05467z"/>
		<path class="st0" d="M129.14058,250.02405c0.54973,0,0.96631,0.14417,1.25139,0.43251
			c0.28506,0.28835,0.42801,0.7041,0.42801,1.24648v2.4415c0,0.16501,0.02859,0.27692,0.0874,0.3349
			c0.058,0.05841,0.12906,0.08781,0.21156,0.08781c0.06126,0,0.1266-0.00858,0.19522-0.02573
			c0.0686-0.01715,0.13396-0.03961,0.19603-0.06699l0.19522,0.61752c-0.12987,0.07597-0.28506,0.13968-0.46313,0.19115
			c-0.17888,0.05145-0.35042,0.07759-0.51541,0.07759c-0.21239,0-0.3929-0.05228-0.54074-0.15437
			c-0.14786-0.10374-0.24179-0.28589-0.28345-0.54646c-0.19931,0.23361-0.43047,0.41249-0.69511,0.53502
			c-0.26466,0.12416-0.5481,0.18623-0.85033,0.18623c-0.40514,0-0.74495-0.11925-1.0194-0.35612
			c-0.27527-0.23689-0.4125-0.56444-0.4125-0.98347c0-0.37737,0.09148-0.68491,0.27364-0.92178
			c0.18134-0.23729,0.41985-0.41577,0.71555-0.53584c0.29488-0.12007,0.60936-0.20258,0.94261-0.24709
			c0.33327-0.04492,0.64775-0.06699,0.94263-0.06699v-0.5975c0-0.28181-0.058-0.50154-0.1748-0.65959
			s-0.32672-0.23688-0.62895-0.23688c-0.24669,0-0.49092,0.05676-0.73106,0.16989c-0.24097,0.11354-0.46722,0.25607-0.68042,0.42761
			l-0.45252-0.69022c0.28835-0.21973,0.60527-0.38474,0.95243-0.4946C128.43156,250.07877,128.78363,250.02405,129.14058,250.02405z
			 M129.79976,253.0116c-0.16499,0-0.35205,0.00858-0.56116,0.02573c-0.20993,0.01715-0.41087,0.05515-0.60283,0.11313
			c-0.19276,0.05841-0.35042,0.15317-0.47375,0.28345c-0.12416,0.13069-0.18542,0.30917-0.18542,0.53584
			c0,0.1993,0.07188,0.34837,0.21645,0.44803c0.14377,0.09966,0.31203,0.14948,0.50481,0.14948
			c0.22626,0,0.42067-0.06371,0.58157-0.19073c0.16174-0.12701,0.28835-0.2867,0.38147-0.47906
			c0.0923-0.19237,0.13885-0.39127,0.13885-0.5975V253.0116z"/>
		<path class="st0" d="M136.54758,250.02405c0.25404,0,0.51869,0.04288,0.79315,0.12865
			c0.27527,0.08577,0.5293,0.21115,0.76291,0.37614l-0.52522,0.67961c-0.17888-0.14418-0.35612-0.25241-0.53093-0.32428
			c-0.1748-0.0723-0.35941-0.10823-0.55136-0.10823c-0.2132,0-0.40189,0.05309-0.56607,0.15968
			c-0.16499,0.1066-0.30467,0.24913-0.41739,0.42761c-0.11354,0.17848-0.19931,0.38269-0.25812,0.61304
			c-0.058,0.22993-0.0874,0.46844-0.0874,0.71594c0,0.61794,0.13396,1.09537,0.40187,1.4319
			c0.26793,0.33653,0.62161,0.50481,1.06107,0.50481c0.19196,0,0.38145-0.03105,0.56688-0.09271
			c0.18542-0.06168,0.38472-0.15112,0.59711-0.26793l0.28915,0.62856c-0.27527,0.16499-0.53993,0.28998-0.79396,0.37575
			c-0.25403,0.08575-0.54237,0.12906-0.86502,0.12906c-0.48111,0-0.89851-0.11354-1.2522-0.33981
			c-0.35368-0.22626-0.62814-0.5444-0.82336-0.95323c-0.19604-0.40842-0.29405-0.88422-0.29405-1.42659
			c0-0.53584,0.10945-1.00307,0.32999-1.40128c0.21973-0.39819,0.51624-0.70737,0.89117-0.92709
			C135.64989,250.13391,136.07382,250.02405,136.54758,250.02405z"/>
		<path class="st0" d="M141.54413,250.14738c0.15111,0.44681,0.30713,0.89116,0.46886,1.33429s0.31775,0.8981,0.46886,1.36493
			c0.05473,0.17888,0.10945,0.36594,0.16499,0.56157c0.05473,0.19562,0.10947,0.38635,0.16501,0.57178
			c0.04738-0.18542,0.09883-0.37616,0.15437-0.57178c0.05473-0.19563,0.11273-0.38269,0.1748-0.56157
			c0.15111-0.46683,0.3055-0.9218,0.46396-1.36493c0.15765-0.44313,0.31203-0.88748,0.46315-1.33429h0.94833l-1.82397,5.14072
			c-0.07515,0.23361-0.1748,0.48111-0.29897,0.74168c-0.12334,0.26138-0.26955,0.50317-0.43782,0.72617
			c-0.16826,0.22379-0.36349,0.40759-0.5873,0.55136c-0.22299,0.14456-0.4754,0.21643-0.7572,0.21643h-0.39127v-0.77271
			c0.03432,0.00653,0.06535,0.01062,0.09312,0.01062c0.02695,0,0.058,0,0.0923,0c0.27446,0,0.50153-0.08249,0.68042-0.2475
			c0.17807-0.16501,0.32591-0.36432,0.44272-0.59711c0.11681-0.23361,0.20911-0.46069,0.27853-0.68042l-1.86482-5.08925H141.54413z"
			/>
		<path class="st0" d="M156.46024,255.26767c-0.19522-0.19603-0.38065-0.39125-0.64856-0.6796
			c-0.59711,0.55626-1.26691,0.79314-2.02901,0.79314c-1.3494,0-2.13193-0.90668-2.13193-1.9469
			c0-0.94753,0.56607-1.5965,1.35921-2.02901v-0.03104c-0.36021-0.45294-0.57668-0.95773-0.57668-1.45233
			c0-0.84419,0.60771-1.70961,1.76108-1.70961c0.86584,0,1.53482,0.57668,1.53482,1.47273c0,0.73148-0.4223,1.30815-1.5242,1.8542
			v0.03064c0.5873,0.68001,1.24648,1.44211,1.68919,1.93669c0.31938-0.48438,0.53584-1.15376,0.6698-2.02901h0.82336
			c-0.18541,1.09171-0.48355,1.95673-0.99898,2.56444c0.37083,0.39127,0.73106,0.78293,1.14355,1.22565H156.46024z
			 M155.36896,254.07306c-0.41168-0.45334-1.1844-1.29793-1.95712-2.18379c-0.37085,0.23689-0.89607,0.68002-0.89607,1.41107
			c0,0.79315,0.58731,1.40086,1.42128,1.40086C154.53497,254.7012,155.03896,254.43329,155.36896,254.07306z M153.25745,249.83984
			c0,0.49419,0.22626,0.87524,0.52522,1.24608c0.70003-0.40147,1.15337-0.77231,1.15337-1.35962
			c0-0.42229-0.23688-0.89606-0.80295-0.89606C153.55641,248.83025,153.25745,249.30402,153.25745,249.83984z"/>
		<path class="st0" d="M31.28041,260.10983h1.29794v6.67593h3.07046v0.8446h-4.22382v-6.86136L31.28041,260.10983z"/>
		<path class="st0" d="M40.73766,262.37653c0.43945,0,0.80539,0.09232,1.097,0.27774
			c0.29242,0.18542,0.50888,0.43292,0.64938,0.74167c0.1405,0.30957,0.21156,0.65591,0.21156,1.04065
			c0,0.10291-0.00572,0.20993-0.01552,0.31937c-0.01062,0.11029-0.02614,0.21973-0.04656,0.33002H39.4291
			c0,0.61099,0.13723,1.08148,0.4125,1.41147c0.27445,0.32919,0.64202,0.49417,1.1019,0.49417
			c0.19931,0,0.40923-0.03265,0.62896-0.09802c0.21973-0.06534,0.44926-0.16254,0.69022-0.29321l0.32918,0.58728
			c-0.24015,0.19196-0.52195,0.3349-0.8446,0.42722c-0.32265,0.09311-0.63549,0.13885-0.93772,0.13885
			c-0.53502,0-0.9851-0.12009-1.3494-0.36023c-0.36431-0.24014-0.6404-0.55951-0.82908-0.95813s-0.28344-0.83807-0.28344-1.31836
			c0-0.35043,0.05146-0.6886,0.15438-1.01532c0.10292-0.32593,0.25567-0.61917,0.45824-0.88055s0.45171-0.46722,0.7474-0.61832
			C40.00251,262.45169,40.34639,262.37653,40.73766,262.37653z M40.66578,263.1076c-0.22708,0-0.42393,0.06372-0.5922,0.19031
			c-0.16908,0.12744-0.30223,0.28915-0.40188,0.48438c-0.09965,0.19604-0.16336,0.39374-0.19114,0.59222h2.15316
			c0.02124-0.2467-0.0049-0.46643-0.07678-0.65918c-0.07188-0.19196-0.18379-0.34146-0.3349-0.44763
			C41.07092,263.16071,40.8855,263.1076,40.66578,263.1076z"/>
		<path class="st0" d="M47.73298,262.38635c0.54973,0,0.96631,0.14456,1.25138,0.43289
			c0.28507,0.28836,0.42802,0.70413,0.42802,1.24649v2.4415c0,0.16501,0.02859,0.27692,0.0874,0.3349
			c0.05799,0.05881,0.12906,0.0874,0.21156,0.0874c0.06126,0,0.12661-0.00815,0.19522-0.02533
			c0.06861-0.01715,0.13396-0.03918,0.19604-0.06696l0.19522,0.61832c-0.12988,0.07516-0.28507,0.13889-0.46314,0.19034
			c-0.17889,0.05145-0.35042,0.07761-0.51542,0.07761c-0.21238,0-0.39289-0.05228-0.54074-0.15521
			c-0.14785-0.10291-0.24178-0.28424-0.28344-0.54565c-0.19931,0.23364-0.43047,0.41168-0.69512,0.53586
			c-0.26465,0.12335-0.54809,0.18542-0.85032,0.18542c-0.40515,0-0.74495-0.11844-1.0194-0.35532
			c-0.27527-0.23688-0.4125-0.56525-0.4125-0.98428c0-0.37738,0.09148-0.68533,0.27364-0.92221
			c0.18134-0.23688,0.41985-0.41495,0.71554-0.53583c0.29488-0.12009,0.60936-0.20175,0.94262-0.2467
			c0.33327-0.04492,0.64775-0.06696,0.94262-0.06696v-0.59793c0-0.28098-0.05799-0.5007-0.1748-0.65918
			c-0.11681-0.15765-0.32673-0.23688-0.62896-0.23688c-0.24668,0-0.49091,0.05637-0.73106,0.16989
			c-0.24096,0.11356-0.46722,0.25568-0.68042,0.42722l-0.45252-0.69022c0.28834-0.21973,0.60527-0.38391,0.95242-0.4942
			C47.02397,262.44189,47.37602,262.38635,47.73298,262.38635z M48.39216,265.3743c-0.165,0-0.35205,0.00897-0.56116,0.02533
			c-0.20993,0.01715-0.41087,0.05554-0.60282,0.11353c-0.19277,0.05881-0.35042,0.15274-0.47376,0.28345
			c-0.12416,0.13071-0.18542,0.30875-0.18542,0.53583c0,0.19931,0.07188,0.34879,0.21646,0.44763
			c0.14376,0.09964,0.31203,0.14948,0.5048,0.14948c0.22626,0,0.42067-0.0629,0.58158-0.19031
			c0.16173-0.12662,0.28834-0.28671,0.38146-0.47867c0.0923-0.19278,0.13886-0.39209,0.13886-0.59793V265.3743z"/>
		<path class="st0" d="M53.811,262.41739c0.13723,0.3161,0.21973,0.65265,0.2475,1.00958
			c0.17154-0.28833,0.41005-0.52847,0.71636-0.72125c0.3055-0.19196,0.62651-0.28833,0.96304-0.28833l-0.20584,1.04062
			c-0.31611,0-0.59138,0.08252-0.82418,0.2475c-0.23362,0.16418-0.44681,0.388-0.63876,0.66901v3.25586h-1.0096v-3.71902
			c0-0.13721-0.01062-0.2916-0.03104-0.46396c-0.02124-0.17151-0.05555-0.33978-0.10292-0.50479
			c-0.04819-0.16418-0.11354-0.30548-0.19604-0.4223L53.811,262.41739z"/>
		<path class="st0" d="M59.48714,262.41739c0.04819,0.11026,0.08822,0.22543,0.11926,0.34552
			c0.03022,0.12006,0.05309,0.23849,0.06698,0.35532c0.20584-0.19931,0.44926-0.37247,0.73106-0.52032
			c0.2818-0.14786,0.56688-0.22137,0.85522-0.22137c0.38473,0,0.69022,0.07678,0.91648,0.23117
			c0.22708,0.15521,0.38799,0.36758,0.48438,0.63876c0.09639,0.272,0.14458,0.58566,0.14458,0.94263v3.44128h-1.0096v-3.22482
			c0-0.19196-0.01389-0.37738-0.04166-0.55627c-0.02695-0.17807-0.09639-0.3259-0.20584-0.44272
			c-0.11027-0.11679-0.28507-0.17563-0.52522-0.17563c-0.14458,0-0.29733,0.03268-0.45906,0.09802
			c-0.16092,0.06537-0.31203,0.14459-0.45252,0.23688c-0.14131,0.09314-0.26628,0.19116-0.37656,0.29407v3.77048h-1.0096v-3.64713
			c0-0.12988-0.00817-0.28671-0.02532-0.46887c-0.01715-0.18134-0.04983-0.36023-0.09802-0.53583
			c-0.04819-0.1748-0.11681-0.31693-0.20584-0.42722L59.48714,262.41739z"/>
		<path class="st0" d="M67.60642,260.72818c0,0.19196-0.06699,0.35696-0.20094,0.49417
			c-0.13396,0.13724-0.29733,0.20584-0.48928,0.20584c-0.19277,0-0.35614-0.0686-0.4901-0.20584
			c-0.13314-0.13721-0.20012-0.30222-0.20012-0.49417c0-0.19278,0.06698-0.35532,0.20012-0.48929
			c0.13396-0.13394,0.29733-0.20093,0.4901-0.20093c0.19196,0,0.35532,0.06699,0.48928,0.20093
			C67.53944,260.37286,67.60642,260.5354,67.60642,260.72818z M67.4308,262.5105v5.11987h-1.0194v-4.53256l-0.12416-0.58731H67.4308
			z"/>
		<path class="st0" d="M71.82942,262.41739c0.04819,0.11026,0.08822,0.22543,0.11926,0.34552
			c0.03022,0.12006,0.05309,0.23849,0.06698,0.35532c0.20584-0.19931,0.44926-0.37247,0.73106-0.52032
			c0.28181-0.14786,0.56688-0.22137,0.85522-0.22137c0.38473,0,0.69022,0.07678,0.91648,0.23117
			c0.22708,0.15521,0.38799,0.36758,0.48438,0.63876c0.09638,0.272,0.14458,0.58566,0.14458,0.94263v3.44128h-1.00961v-3.22482
			c0-0.19196-0.01389-0.37738-0.04166-0.55627c-0.02695-0.17807-0.09638-0.3259-0.20584-0.44272
			c-0.11027-0.11679-0.28507-0.17563-0.52522-0.17563c-0.14458,0-0.29733,0.03268-0.45905,0.09802
			c-0.16092,0.06537-0.31203,0.14459-0.45252,0.23688c-0.14131,0.09314-0.26629,0.19116-0.37656,0.29407v3.77048h-1.0096v-3.64713
			c0-0.12988-0.00816-0.28671-0.02532-0.46887c-0.01715-0.18134-0.04983-0.36023-0.09801-0.53583
			c-0.04819-0.1748-0.11681-0.31693-0.20584-0.42722L71.82942,262.41739z"/>
		<path class="st0" d="M80.22561,262.37653c0.20584,0,0.39698,0.02371,0.57178,0.0719
			c0.17562,0.04819,0.35859,0.07187,0.55136,0.07187c0.27445,0,0.55626-0.01389,0.8446-0.04083
			c0.28835-0.02777,0.58076-0.05881,0.87564-0.09311l-0.20584,0.78333h-0.8446c-0.04166,0-0.08659-0.00327-0.13396-0.01062
			c-0.04819-0.00653-0.09312-0.01389-0.13396-0.02042c0.10946,0.15112,0.19359,0.30713,0.2524,0.46887
			c0.05799,0.16089,0.08739,0.3316,0.08739,0.50967c0,0.35043-0.0825,0.66165-0.2475,0.93283s-0.39452,0.48193-0.69022,0.63306
			c-0.29488,0.15109-0.63876,0.22705-1.03002,0.22705c-0.15112,0-0.28507,0.04495-0.40188,0.13397s-0.1748,0.21646-0.1748,0.38065
			c0,0.11026,0.03594,0.19113,0.10782,0.24258c0.07188,0.05148,0.16337,0.08252,0.27283,0.09232
			c0.11027,0.01062,0.22381,0.0155,0.34061,0.0155h0.77272c0.19196,0,0.38963,0.01062,0.5922,0.03107
			c0.20258,0.02042,0.38636,0.0686,0.55054,0.14456c0.16499,0.07516,0.30059,0.18704,0.40759,0.33408
			c0.10619,0.14786,0.15929,0.34879,0.15929,0.60284c0,0.37082-0.08087,0.69022-0.24178,0.95813
			c-0.16174,0.26791-0.37247,0.48764-0.63386,0.65918c-0.26139,0.17233-0.55299,0.29733-0.87564,0.37656
			C80.67568,269.95996,80.35303,270,80.02957,270c-0.19849,0-0.41005-0.02042-0.63305-0.06207
			c-0.22381-0.04083-0.43455-0.10947-0.63386-0.20584c-0.1993-0.09641-0.36022-0.22708-0.48438-0.39127
			c-0.12334-0.16501-0.18542-0.3782-0.18542-0.63876c0-0.27527,0.08577-0.51868,0.25812-0.73187
			c0.17154-0.2132,0.36676-0.38474,0.5873-0.51462v-0.03104c-0.13805-0.06207-0.25077-0.1601-0.34062-0.29404
			c-0.08903-0.13397-0.13396-0.27609-0.13396-0.42722c0-0.08249,0.03676-0.16174,0.10863-0.23688
			c0.07188-0.07596,0.16255-0.17725,0.27283-0.30386c0.10945-0.12741,0.23035-0.30386,0.36022-0.53094
			c-0.26057-0.15765-0.46642-0.36594-0.61752-0.62323c-0.15112-0.25729-0.22708-0.54401-0.22708-0.86014
			c0-0.34305,0.08414-0.64935,0.2524-0.9173c0.16827-0.26709,0.39697-0.47702,0.68532-0.62811
			C79.58685,262.45169,79.89642,262.37653,80.22561,262.37653z M79.64893,267.64099
			c-0.13069,0.08252-0.24913,0.20584-0.35532,0.37085c-0.107,0.16418-0.1601,0.32919-0.1601,0.49417
			c0,0.15765,0.05882,0.29163,0.17562,0.40189c0.11599,0.10947,0.25566,0.18869,0.41658,0.23688
			c0.16174,0.04819,0.31448,0.0719,0.45906,0.0719c0.22626,0,0.46478-0.02942,0.71554-0.0874
			c0.25077-0.05801,0.46233-0.16501,0.63386-0.3194c0.17154-0.15439,0.2573-0.36594,0.2573-0.63385
			c0-0.17154-0.05473-0.29489-0.165-0.37085c-0.10945-0.07513-0.24505-0.1217-0.40678-0.13885
			c-0.16092-0.01715-0.31366-0.02533-0.45824-0.02533H79.64893z M80.22561,263.05615c-0.23361,0-0.42557,0.10861-0.57668,0.32428
			c-0.15112,0.21646-0.22708,0.4762-0.22708,0.77841c0,0.30878,0.07597,0.57016,0.22708,0.78253
			c0.15112,0.2132,0.34307,0.3194,0.57668,0.3194c0.2475,0,0.44435-0.10294,0.5922-0.30878
			c0.14784-0.20584,0.22218-0.46722,0.22218-0.78333c0-0.30878-0.0776-0.57178-0.23198-0.78824
			C80.65363,263.16476,80.45922,263.05615,80.22561,263.05615z"/>
		<path class="st0" d="M90.03327,260.10983h1.29794v7.52054h-1.15336v-6.86136c0-0.00653-0.01225-0.05963-0.03594-0.15927
			c-0.02451-0.09967-0.04655-0.20258-0.06698-0.30957C90.05369,260.19397,90.0398,260.13025,90.03327,260.10983z"/>
		<path class="st0" d="M95.76087,262.41739c0.04819,0.11026,0.0874,0.22543,0.11844,0.34552
			c0.03104,0.12006,0.05309,0.23523,0.06698,0.3447c0.2132-0.18542,0.44681-0.35205,0.70084-0.49991
			c0.25404-0.14703,0.53175-0.22134,0.83398-0.22134c0.30958,0,0.57913,0.06207,0.80865,0.18539
			c0.23035,0.12418,0.41087,0.33002,0.54156,0.61835c0.21973-0.21237,0.46805-0.40024,0.74658-0.56116
			c0.27854-0.16174,0.57178-0.24258,0.88055-0.24258c0.37819,0,0.67878,0.07758,0.90178,0.23196
			c0.22299,0.15439,0.38145,0.36594,0.47375,0.63385c0.09312,0.26794,0.13886,0.57669,0.13886,0.92712v3.45108h-1.0194v-3.25586
			c0-0.19196-0.01552-0.37576-0.04656-0.55057c-0.03104-0.1756-0.10128-0.31772-0.21156-0.42801
			c-0.10946-0.10944-0.28099-0.16501-0.5146-0.16501c-0.2132,0-0.42965,0.07272-0.64938,0.21646
			c-0.21973,0.14459-0.3978,0.2851-0.53584,0.4223v3.76068h-1.0194v-3.27631c0-0.18539-0.01715-0.36185-0.05146-0.53012
			c-0.03431-0.16824-0.107-0.30957-0.21646-0.42227c-0.11027-0.11356-0.27853-0.17075-0.5048-0.17075
			c-0.13723,0-0.28017,0.03268-0.42802,0.09802c-0.14703,0.06537-0.28671,0.14786-0.41659,0.2475
			c-0.13069,0.09967-0.2475,0.19443-0.35042,0.28345v3.77048h-1.0096v-3.69858c0-0.13724-0.01062-0.29163-0.03104-0.46317
			c-0.02042-0.17233-0.05473-0.34061-0.10292-0.50479c-0.04819-0.16501-0.11354-0.30548-0.19604-0.42313L95.76087,262.41739z"/>
		<path class="st0" d="M106.33145,262.41739c0.04166,0.10291,0.0776,0.2132,0.10864,0.32999
			c0.03104,0.11682,0.05309,0.23035,0.06698,0.33981c0.16418-0.21973,0.38228-0.39127,0.65428-0.51544
			c0.27119-0.12332,0.54074-0.18539,0.80865-0.18539c0.37084,0,0.69186,0.07431,0.96304,0.22134
			c0.27119,0.14786,0.49582,0.35043,0.6747,0.60855c0.17889,0.25729,0.3104,0.54236,0.39698,0.8544
			c0.08577,0.31284,0.12824,0.63385,0.12824,0.96384c0,0.47379-0.08576,0.91812-0.2573,1.33389
			c-0.17153,0.41577-0.43128,0.75067-0.77762,1.0047c-0.34715,0.25403-0.78171,0.38065-1.30366,0.38065
			c-0.20584,0-0.4223-0.0343-0.64857-0.10294c-0.22707-0.0686-0.41903-0.17151-0.57749-0.30875
			c0.01389,0.09637,0.02123,0.19522,0.02123,0.29895c0,0.10294,0,0.18869,0,0.25729v1.36984l0.14376,0.58728h-1.16398v-5.87216
			c0-0.13724-0.00899-0.29489-0.02614-0.47375c-0.01715-0.17889-0.04819-0.3537-0.0923-0.52524
			c-0.04493-0.17154-0.10863-0.3161-0.19032-0.43292L106.33145,262.41739z M107.68085,263.20071
			c-0.21238,0-0.41658,0.06128-0.61263,0.18542c-0.19604,0.12335-0.35532,0.27118-0.47866,0.44272v1.69983
			c0,0.25403,0.03594,0.49091,0.10783,0.71063c0.07188,0.22055,0.19359,0.39862,0.36594,0.53583
			c0.17153,0.13724,0.3978,0.20584,0.6796,0.20584c0.2475,0,0.45497-0.05798,0.62324-0.17477
			c0.16827-0.11682,0.30386-0.27121,0.40678-0.46396c0.10374-0.19196,0.17398-0.3978,0.21156-0.61752
			s0.05636-0.43292,0.05636-0.63876c0-0.2132-0.02205-0.42966-0.06698-0.64938c-0.04411-0.21973-0.12007-0.42395-0.22626-0.61264
			c-0.10701-0.18866-0.2475-0.34061-0.4223-0.45334C108.14971,263.25708,107.93489,263.20071,107.68085,263.20071z"/>
		<path class="st0" d="M115.1916,262.38635c0.54972,0,0.96631,0.14456,1.25138,0.43289
			c0.28507,0.28836,0.42802,0.70413,0.42802,1.24649v2.4415c0,0.16501,0.02859,0.27692,0.0874,0.3349
			c0.05799,0.05881,0.12906,0.0874,0.21156,0.0874c0.06126,0,0.12661-0.00815,0.19522-0.02533
			c0.06862-0.01715,0.13396-0.03918,0.19604-0.06696l0.19522,0.61832c-0.12988,0.07516-0.28507,0.13889-0.46314,0.19034
			c-0.17889,0.05145-0.35042,0.07761-0.51542,0.07761c-0.21238,0-0.3929-0.05228-0.54074-0.15521
			c-0.14785-0.10291-0.24178-0.28424-0.28344-0.54565c-0.19931,0.23364-0.43047,0.41168-0.69512,0.53586
			c-0.26466,0.12335-0.5481,0.18542-0.85032,0.18542c-0.40515,0-0.74495-0.11844-1.0194-0.35532
			c-0.27528-0.23688-0.4125-0.56525-0.4125-0.98428c0-0.37738,0.09148-0.68533,0.27364-0.92221
			c0.18134-0.23688,0.41985-0.41495,0.71555-0.53583c0.29487-0.12009,0.60935-0.20175,0.94262-0.2467
			c0.33327-0.04492,0.64774-0.06696,0.94262-0.06696v-0.59793c0-0.28098-0.058-0.5007-0.1748-0.65918
			c-0.11681-0.15765-0.32673-0.23688-0.62896-0.23688c-0.24668,0-0.49091,0.05637-0.73106,0.16989
			c-0.24097,0.11356-0.46722,0.25568-0.68042,0.42722l-0.45252-0.69022c0.28834-0.21973,0.60527-0.38391,0.95242-0.4942
			C114.48259,262.44189,114.83464,262.38635,115.1916,262.38635z M115.85078,265.3743c-0.165,0-0.35205,0.00897-0.56116,0.02533
			c-0.20992,0.01715-0.41087,0.05554-0.60281,0.11353c-0.19277,0.05881-0.35043,0.15274-0.47376,0.28345
			c-0.12416,0.13071-0.18542,0.30875-0.18542,0.53583c0,0.19931,0.07188,0.34879,0.21646,0.44763
			c0.14376,0.09964,0.31203,0.14948,0.5048,0.14948c0.22626,0,0.42067-0.0629,0.58158-0.19031
			c0.16174-0.12662,0.28835-0.28671,0.38146-0.47867c0.0923-0.19278,0.13886-0.39209,0.13886-0.59793V265.3743z"/>
		<path class="st0" d="M122.59778,262.38635c0.25404,0,0.51869,0.04327,0.79314,0.12906
			c0.27527,0.08575,0.5293,0.21072,0.76292,0.37573l-0.52522,0.68042c-0.17889-0.14459-0.35613-0.25241-0.53094-0.3251
			c-0.1748-0.07187-0.35941-0.10782-0.55136-0.10782c-0.21319,0-0.40188,0.0531-0.56606,0.15927
			c-0.16499,0.10703-0.30467,0.24915-0.4174,0.42804c-0.11354,0.17886-0.1993,0.38309-0.25812,0.61261
			c-0.05799,0.23035-0.0874,0.46887-0.0874,0.71637c0,0.61832,0.13396,1.09537,0.40188,1.43188
			c0.26792,0.33655,0.62161,0.50479,1.06107,0.50479c0.19196,0,0.38145-0.03104,0.56688-0.09229
			c0.18542-0.06207,0.38473-0.15112,0.5971-0.26791l0.28915,0.62814c-0.27527,0.16498-0.53992,0.28995-0.79395,0.37573
			c-0.25404,0.08575-0.54237,0.12906-0.86502,0.12906c-0.48112,0-0.89851-0.11356-1.2522-0.33981
			c-0.35369-0.22708-0.62814-0.54483-0.82336-0.95322c-0.19604-0.40842-0.29406-0.88382-0.29406-1.427
			c0-0.53586,0.10945-1.00226,0.33-1.40088c0.21973-0.39862,0.51624-0.70737,0.89116-0.92709
			C121.70009,262.49661,122.12402,262.38635,122.59778,262.38635z"/>
		<path class="st0" d="M128.69704,261.03693c-0.04819,0.23361-0.08904,0.47784-0.12334,0.7319
			c-0.0343,0.25403-0.058,0.5007-0.07188,0.74167h1.29794l-0.1748,0.72043h-1.12314v3.09088
			c0,0.10294,0.01144,0.20831,0.03595,0.31448c0.02368,0.1062,0.07187,0.19034,0.14375,0.25241
			c0.07271,0.06207,0.18053,0.09229,0.3251,0.09229c0.10945,0,0.21973-0.0098,0.32918-0.03021
			c0.11028-0.02124,0.21646-0.04492,0.31938-0.07269l0.14458,0.65918c-0.17154,0.05554-0.34879,0.10373-0.53094,0.14459
			c-0.18214,0.04166-0.37247,0.06207-0.57178,0.06207c-0.43945,0-0.75148-0.11191-0.9369-0.3349
			c-0.18542-0.22299-0.27854-0.55136-0.27854-0.98428v-3.19382h-0.80376v-0.58646c0.28181-0.00735,0.50806-0.09802,0.68042-0.27365
			c0.17153-0.1748,0.30549-0.38635,0.40188-0.63306c0.09557-0.2475,0.16418-0.48111,0.20584-0.70084H128.69704z"/>
		<path class="st0" d="M138.52594,260.12045l3.14153,4.81113c0.06862,0.10291,0.13722,0.20911,0.20665,0.31937
			c0.06862,0.10947,0.13724,0.21567,0.20584,0.3194c-0.00734-0.12418-0.01552-0.2475-0.02614-0.37167
			c-0.0098-0.12332-0.01552-0.24667-0.01552-0.37082v-4.7074h0.93773v7.5614h-0.82419l-3.63652-5.56345
			c-0.06207-0.10291-0.12743-0.20746-0.19603-0.31366c-0.06862-0.10699-0.13724-0.20828-0.20584-0.30386
			c0.01389,0.10947,0.02368,0.22137,0.03104,0.33411c0.00653,0.11353,0.01062,0.2287,0.01062,0.34552v5.44986h-0.93773v-6.85074
			l-0.14458-0.65918H138.52594z"/>
		<path class="st0" d="M148.59009,262.37653c0.43945,0,0.80539,0.09232,1.097,0.27774
			c0.29242,0.18542,0.50888,0.43292,0.64938,0.74167c0.14049,0.30957,0.21155,0.65591,0.21155,1.04065
			c0,0.10291-0.00571,0.20993-0.01552,0.31937c-0.01062,0.11029-0.02614,0.21973-0.04655,0.33002h-3.20442
			c0,0.61099,0.13724,1.08148,0.41251,1.41147c0.27444,0.32919,0.64203,0.49417,1.1019,0.49417
			c0.19931,0,0.40923-0.03265,0.62895-0.09802c0.21973-0.06534,0.44926-0.16254,0.69023-0.29321l0.32918,0.58728
			c-0.24014,0.19196-0.52196,0.3349-0.8446,0.42722c-0.32265,0.09311-0.63548,0.13885-0.93771,0.13885
			c-0.53502,0-0.98509-0.12009-1.34941-0.36023c-0.3643-0.24014-0.64038-0.55951-0.82907-0.95813s-0.28345-0.83807-0.28345-1.31836
			c0-0.35043,0.05147-0.6886,0.15439-1.01532c0.10292-0.32593,0.25566-0.61917,0.45824-0.88055s0.45171-0.46722,0.74741-0.61832
			C147.85495,262.45169,148.19882,262.37653,148.59009,262.37653z M148.5182,263.1076c-0.22708,0-0.42393,0.06372-0.59219,0.19031
			c-0.16908,0.12744-0.30223,0.28915-0.40189,0.48438c-0.09966,0.19604-0.16336,0.39374-0.19113,0.59222h2.15315
			c0.02124-0.2467-0.0049-0.46643-0.07678-0.65918c-0.07187-0.19196-0.18378-0.34146-0.3349-0.44763
			C148.92336,263.16071,148.73793,263.1076,148.5182,263.1076z"/>
		<path class="st0" d="M155.22437,261.03693c-0.04819,0.23361-0.08904,0.47784-0.12334,0.7319
			c-0.0343,0.25403-0.058,0.5007-0.07188,0.74167h1.29794l-0.1748,0.72043h-1.12314v3.09088
			c0,0.10294,0.01144,0.20831,0.03595,0.31448c0.02368,0.1062,0.07188,0.19034,0.14375,0.25241
			c0.07271,0.06207,0.18053,0.09229,0.3251,0.09229c0.10945,0,0.21973-0.0098,0.32918-0.03021
			c0.11028-0.02124,0.21646-0.04492,0.31938-0.07269l0.14458,0.65918c-0.17152,0.05554-0.34879,0.10373-0.53093,0.14459
			c-0.18216,0.04166-0.37248,0.06207-0.57179,0.06207c-0.43945,0-0.75148-0.11191-0.93689-0.3349
			c-0.18542-0.22299-0.27855-0.55136-0.27855-0.98428v-3.19382h-0.80376v-0.58646c0.2818-0.00735,0.50807-0.09802,0.68042-0.27365
			c0.17154-0.1748,0.3055-0.38635,0.40189-0.63306c0.09557-0.2475,0.16417-0.48111,0.20584-0.70084H155.22437z"/>
		<path class="st0" d="M159.59277,262.5105l0.80376,2.69879c0.04166,0.12335,0.07188,0.24915,0.09312,0.37576
			c0.02042,0.12741,0.0441,0.26627,0.07187,0.41739c0.02696-0.15112,0.05147-0.28833,0.07188-0.41168
			c0.02043-0.12415,0.05147-0.2475,0.09312-0.37085l0.85522-2.70941h0.82417l0.81357,2.69879
			c0.04083,0.12335,0.07024,0.2475,0.08739,0.37085c0.01717,0.12335,0.03922,0.26465,0.06699,0.4223
			c0.02777-0.15765,0.0531-0.29895,0.07761-0.4223c0.02368-0.12335,0.05309-0.2475,0.08739-0.37085l0.8446-2.69879h0.88626
			l-1.61732,5.17136h-0.76291c-0.11681-0.39127-0.23524-0.77274-0.35533-1.14359c-0.12007-0.37082-0.23361-0.74985-0.3398-1.13864
			c-0.10699-0.388-0.20747-0.80133-0.30385-1.24078c-0.10292,0.43945-0.21156,0.85278-0.3243,1.24078
			c-0.11353,0.38879-0.23198,0.76782-0.35612,1.13864c-0.12335,0.37085-0.25078,0.75232-0.38065,1.14359h-0.77272l-1.52502-5.17136
			H159.59277z"/>
		<path class="st0" d="M169.98773,267.76434c-0.50807,0-0.9369-0.12335-1.28732-0.37085s-0.6167-0.57178-0.79886-0.97366
			c-0.18214-0.40186-0.27281-0.83969-0.27281-1.31345c0-0.48029,0.09637-0.92709,0.28833-1.3396
			c0.19196-0.41168,0.4705-0.74496,0.83481-0.99899c0.36348-0.25403,0.7964-0.38144,1.29794-0.38144
			c0.51541,0,0.94751,0.12006,1.29793,0.36102c0.35042,0.24014,0.61508,0.56281,0.79315,0.96796
			c0.17888,0.40512,0.26791,0.84866,0.26791,1.32898c0,0.47375-0.09393,0.91891-0.28343,1.33469
			c-0.18869,0.41495-0.46315,0.74985-0.82419,1.00388C170.94098,267.6369,170.50316,267.76434,169.98773,267.76434z
			 M169.99835,267.03247c0.25403,0,0.46722-0.06128,0.63876-0.18542c0.17152-0.12335,0.30713-0.28427,0.40678-0.48358
			c0.09964-0.19928,0.16989-0.41248,0.21155-0.63873c0.04085-0.22708,0.06126-0.44354,0.06126-0.64938
			c0-0.21237-0.01878-0.43292-0.05635-0.65918c-0.03758-0.22708-0.10129-0.43945-0.19032-0.63876
			c-0.08986-0.19931-0.21809-0.35858-0.38637-0.47949c-0.16826-0.12006-0.38309-0.17969-0.64447-0.17969
			c-0.25404,0-0.46478,0.06125-0.63304,0.18542c-0.16827,0.12332-0.30223,0.28506-0.40189,0.48438s-0.16991,0.4133-0.21156,0.64365
			c-0.04083,0.23035-0.06126,0.44437-0.06126,0.64368s0.0188,0.41248,0.05637,0.63876
			c0.03758,0.22708,0.10455,0.44107,0.20094,0.64365s0.22626,0.36594,0.39127,0.48929
			C169.54501,266.97119,169.75085,267.03247,169.99835,267.03247z"/>
		<path class="st0" d="M176.3443,262.41739c0.13722,0.3161,0.21973,0.65265,0.2475,1.00958
			c0.17152-0.28833,0.41005-0.52847,0.71635-0.72125c0.3055-0.19196,0.62651-0.28833,0.96304-0.28833l-0.20584,1.04062
			c-0.31612,0-0.59138,0.08252-0.82417,0.2475c-0.23363,0.16418-0.44681,0.388-0.63876,0.66901v3.25586h-1.0096v-3.71902
			c0-0.13721-0.01062-0.2916-0.03105-0.46396c-0.02122-0.17151-0.05554-0.33978-0.10292-0.50479
			c-0.04819-0.16418-0.11354-0.30548-0.19603-0.4223L176.3443,262.41739z"/>
		<path class="st0" d="M182.26794,259.74881v4.8732l1.78232-2.11151h1.04063l-1.84441,2.15317l2.13275,2.96671h-1.1844
			l-1.9269-2.72003v2.72003h-1.01941v-7.29428l-0.13396-0.58728H182.26794z"/>
	</g>
	<g>
		<polygon class="st1" points="91.17056,105.43903 91.17056,19.43466 86.52535,20.24795 86.52535,106.25231 		"/>
		<g>
			<linearGradient id="SVGID_1_" gradientUnits="userSpaceOnUse" x1="101.20856" y1="187.72528" x2="32.06882" y2="67.97175">
				<stop  offset="0" style="stop-color:#652D90"/>
				<stop  offset="0.13816" style="stop-color:#722B8F"/>
				<stop  offset="0.37722" style="stop-color:#822A8D"/>
				<stop  offset="0.64538" style="stop-color:#8C288C"/>
				<stop  offset="1" style="stop-color:#8F288C"/>
			</linearGradient>
			<polygon class="st2" points="105.08484,185.4873 105.08484,185.4873 105.08967,108.78724 35.26598,66.36792 30.62076,68.80779 
				30.62076,151.12395 			"/>
			
				<linearGradient id="SVGID_00000057148990749342262800000006607311814408655516_" gradientUnits="userSpaceOnUse" x1="33.86764" y1="55.56213" x2="107.9312" y2="183.84396">
				<stop  offset="0.43626" style="stop-color:#9D2063"/>
				<stop  offset="0.62072" style="stop-color:#992063"/>
				<stop  offset="0.80805" style="stop-color:#8D2063"/>
				<stop  offset="0.99616" style="stop-color:#782063"/>
				<stop  offset="1" style="stop-color:#782063"/>
			</linearGradient>
			<polygon style="fill:url(#SVGID_00000057148990749342262800000006607311814408655516_);" points="105.08484,185.4873 
				105.08967,108.78724 45.02839,49.48434 40.38709,51.79812 40.38709,136.9892 105.08484,185.4873 			"/>
			
				<linearGradient id="SVGID_00000119839566065529463370000009143775639517059494_" gradientUnits="userSpaceOnUse" x1="106.27627" y1="84.66533" x2="55.26956" y2="135.67203">
				<stop  offset="0.02297" style="stop-color:#EA1F27"/>
				<stop  offset="0.44673" style="stop-color:#E71F27"/>
				<stop  offset="0.74967" style="stop-color:#DE1F27"/>
				<stop  offset="0.99047" style="stop-color:#D01F27"/>
			</linearGradient>
			<polygon style="fill:url(#SVGID_00000119839566065529463370000009143775639517059494_);" points="105.08484,185.4873 
				105.08484,185.4873 105.08967,108.78724 58.37695,36.76602 53.73174,37.57931 53.73174,123.58367 			"/>
			
				<linearGradient id="SVGID_00000137125882010652482900000013125356315570355857_" gradientUnits="userSpaceOnUse" x1="49.87419" y1="37.12449" x2="127.91984" y2="172.30351">
				<stop  offset="0.08751" style="stop-color:#EE4037"/>
				<stop  offset="0.58382" style="stop-color:#EC3E37"/>
				<stop  offset="0.87748" style="stop-color:#E53537"/>
				<stop  offset="1" style="stop-color:#E02F37"/>
			</linearGradient>
			<polygon style="fill:url(#SVGID_00000137125882010652482900000013125356315570355857_);" points="105.08484,185.4873 
				105.08967,108.78724 73.55944,25.41336 68.74981,26.22664 68.74981,112.91822 105.08484,185.4873 			"/>
			
				<linearGradient id="SVGID_00000075873337650268403140000003950060125108633521_" gradientUnits="userSpaceOnUse" x1="105.08967" y1="102.46098" x2="86.52354" y2="102.46098">
				<stop  offset="0" style="stop-color:#F57C20"/>
				<stop  offset="0.00568" style="stop-color:#F57D20"/>
				<stop  offset="0.16322" style="stop-color:#F58820"/>
				<stop  offset="0.38463" style="stop-color:#F58F20"/>
				<stop  offset="1" style="stop-color:#F59120"/>
			</linearGradient>
			<polygon style="fill:url(#SVGID_00000075873337650268403140000003950060125108633521_);" points="105.08967,108.82815 
				105.08484,185.4873 86.52354,106.25231 86.52354,20.24795 91.16747,19.43466 			"/>
		</g>
		<polygon class="st7" points="30.62076,151.12395 30.62076,68.80779 35.26598,66.36792 35.26598,148.68408 		"/>
		<polygon class="st8" points="45.03231,134.67542 45.03231,49.48434 40.38709,51.79812 40.38709,136.9892 		"/>
		<polygon class="st9" points="58.37695,121.39597 58.37695,36.76602 53.73174,37.57931 53.73174,123.58367 		"/>
		<polygon class="st10" points="73.39502,111.41772 73.39502,25.41336 68.74981,26.22664 68.74981,112.91822 		"/>
		<polygon class="st11" points="91.17056,105.43903 91.17056,19.43466 86.52535,20.24795 86.52535,106.25231 		"/>
		<g>
			<polygon class="st1" points="123.88804,105.43903 123.88804,19.43466 128.53325,20.24795 128.53325,106.25231 			"/>
			<g>
				
					<linearGradient id="SVGID_00000169548008265161002370000013621461492367510950_" gradientUnits="userSpaceOnUse" x1="100.82031" y1="176.33867" x2="196.39452" y2="80.76447">
					<stop  offset="0" style="stop-color:#0064EE"/>
					<stop  offset="0.22451" style="stop-color:#0E7CE9"/>
					<stop  offset="0.50973" style="stop-color:#1B94E3"/>
					<stop  offset="0.77535" style="stop-color:#23A2E0"/>
					<stop  offset="1" style="stop-color:#26A7DF"/>
				</linearGradient>
				<polygon style="fill:url(#SVGID_00000169548008265161002370000013621461492367510950_);" points="109.96894,185.4873 
					109.96894,185.4873 109.96894,108.78724 179.79263,66.36792 184.43785,68.80779 184.43785,151.12395 				"/>
				
					<linearGradient id="SVGID_00000134929163526080316600000016870888555655395722_" gradientUnits="userSpaceOnUse" x1="107.12621" y1="183.84605" x2="181.19096" y2="55.56213">
					<stop  offset="0" style="stop-color:#298E93"/>
					<stop  offset="0.10156" style="stop-color:#289F85"/>
					<stop  offset="0.22831" style="stop-color:#27AA7A"/>
					<stop  offset="0.40674" style="stop-color:#27B175"/>
					<stop  offset="0.90218" style="stop-color:#27B373"/>
				</linearGradient>
				<polygon style="fill:url(#SVGID_00000134929163526080316600000016870888555655395722_);" points="109.96894,185.4873 
					109.96894,108.78724 170.03021,49.48434 174.67151,51.79812 174.67151,136.9892 109.96894,185.4873 				"/>
				
					<linearGradient id="SVGID_00000121969546664056726250000002693718688312342458_" gradientUnits="userSpaceOnUse" x1="161.25119" y1="155.87949" x2="108.53116" y2="64.56572">
					<stop  offset="0" style="stop-color:#298E93"/>
					<stop  offset="0.04745" style="stop-color:#218F84"/>
					<stop  offset="0.14041" style="stop-color:#15906E"/>
					<stop  offset="0.24878" style="stop-color:#0B915C"/>
					<stop  offset="0.38036" style="stop-color:#059250"/>
					<stop  offset="0.55945" style="stop-color:#019249"/>
					<stop  offset="1" style="stop-color:#009247"/>
				</linearGradient>
				<polygon style="fill:url(#SVGID_00000121969546664056726250000002693718688312342458_);" points="109.96894,185.4873 
					109.96894,185.4873 109.96894,108.78724 156.68166,36.76602 161.32687,37.57931 161.32687,123.58367 				"/>
				<polygon class="st15" points="109.97377,185.4873 109.96894,108.78724 141.49916,25.41336 146.30879,26.22664 
					146.30879,112.91822 109.97377,185.4873 				"/>
				
					<linearGradient id="SVGID_00000084520663956838979030000008194207006765073813_" gradientUnits="userSpaceOnUse" x1="116.80995" y1="185.4873" x2="116.80995" y2="19.43466">
					<stop  offset="0" style="stop-color:#B9DD26"/>
					<stop  offset="0.04371" style="stop-color:#C3DD26"/>
					<stop  offset="0.14656" style="stop-color:#D4DD26"/>
					<stop  offset="0.27464" style="stop-color:#DFDD26"/>
					<stop  offset="0.45434" style="stop-color:#E6DD26"/>
					<stop  offset="0.95326" style="stop-color:#E8DD26"/>
				</linearGradient>
				<polygon style="fill:url(#SVGID_00000084520663956838979030000008194207006765073813_);" points="109.96894,108.82815 
					105.08967,108.78724 105.08484,185.4873 109.97377,185.4873 128.53506,106.25231 128.53506,20.24795 123.89114,19.43466 				"/>
			</g>
			<polygon class="st17" points="184.43785,151.12395 184.43785,68.80779 179.79263,66.36792 179.79263,148.68408 			"/>
			<polygon class="st18" points="170.02629,134.67542 170.02629,49.48434 174.67151,51.79812 174.67151,136.9892 			"/>
			<polygon class="st19" points="156.68166,121.39597 156.68166,36.76602 161.32687,37.57931 161.32687,123.58367 			"/>
			<polygon class="st20" points="141.66359,111.41772 141.66359,25.41336 146.30879,26.22664 146.30879,112.91822 			"/>
			<polygon class="st21" points="123.88804,105.43903 123.88804,19.43466 128.53325,20.24795 128.53325,106.25231 			"/>
		</g>
		<g>
			<rect x="105.08967" y="18" class="st22" width="4.87927" height="83.95041"/>
			
				<linearGradient id="SVGID_00000080177120503506809740000015661608251739484035_" gradientUnits="userSpaceOnUse" x1="107.5293" y1="101.95041" x2="107.5293" y2="185.4873">
				<stop  offset="0.57791" style="stop-color:#F4D532"/>
				<stop  offset="0.884" style="stop-color:#F4D332"/>
				<stop  offset="1" style="stop-color:#F4CD32"/>
			</linearGradient>
			
				<rect x="105.08967" y="101.95041" style="fill:url(#SVGID_00000080177120503506809740000015661608251739484035_);" width="4.87927" height="83.5369"/>
		</g>
	</g>
</g>
</svg>
