<?xml version="1.0" encoding="utf-8"?>
<!-- Generator: Adobe Illustrator 26.3.1, SVG Export Plug-In . SVG Version: 6.00 Build 0)  -->
<svg version="1.1" id="Layer_1" xmlns="http://www.w3.org/2000/svg" xmlns:xlink="http://www.w3.org/1999/xlink" x="0px" y="0px"
	 viewBox="0 0 216 216" style="enable-background:new 0 0 216 216;" xml:space="preserve">
<style type="text/css">
	.st0{fill:#EE4037;}
	.st1{fill:url(#SVGID_1_);}
	.st2{fill:url(#SVGID_00000095311694380340003470000005588286774158933948_);}
	.st3{fill:url(#SVGID_00000154406202929734973370000014726659680776825783_);}
	.st4{fill:url(#SVGID_00000114778879595052677280000003259805453638502309_);}
	.st5{fill:url(#SVGID_00000078758376072445902010000010539495472236786065_);}
	.st6{fill:#6A2263;}
	.st7{fill:#884390;}
	.st8{fill:#EA2B7B;}
	.st9{fill:#F05A28;}
	.st10{fill:#FAA240;}
	.st11{fill:url(#SVGID_00000107562015804077593270000003310509382632684199_);}
	.st12{fill:url(#SVGID_00000015345696510936082100000014276013738948937145_);}
	.st13{fill:url(#SVGID_00000099624403215701948490000001642290401249777803_);}
	.st14{fill:#B8D232;}
	.st15{fill:url(#SVGID_00000124150703689531447680000013878030902608625570_);}
	.st16{fill:#1B75BA;}
	.st17{fill:#36B24A;}
	.st18{fill:#27B373;}
	.st19{fill:#8AC440;}
	.st20{fill:#F7EA2F;}
	.st21{fill:#FBED1D;}
	.st22{fill:url(#SVGID_00000066479422833386565070000012898009407304243900_);}
</style>
<g>
	<polygon class="st0" points="88.9,112.3 88.9,11.7 83.4,12.6 83.4,113.3 	"/>
	<g>
		<linearGradient id="SVGID_1_" gradientUnits="userSpaceOnUse" x1="100.6033" y1="208.6175" x2="19.6946" y2="68.4794">
			<stop  offset="0" style="stop-color:#652D90"/>
			<stop  offset="0.1382" style="stop-color:#722B8F"/>
			<stop  offset="0.3772" style="stop-color:#822A8D"/>
			<stop  offset="0.6454" style="stop-color:#8C288C"/>
			<stop  offset="1" style="stop-color:#8F288C"/>
		</linearGradient>
		<polygon class="st1" points="105.1,206 105.1,206 105.1,116.2 23.4,66.6 18,69.5 18,165.8 		"/>
		
			<linearGradient id="SVGID_00000148663567859920894170000006392941624899429013_" gradientUnits="userSpaceOnUse" x1="21.7996" y1="53.9574" x2="108.4703" y2="204.0755">
			<stop  offset="0.4363" style="stop-color:#9D2063"/>
			<stop  offset="0.6207" style="stop-color:#992063"/>
			<stop  offset="0.808" style="stop-color:#8D2063"/>
			<stop  offset="0.9962" style="stop-color:#782063"/>
			<stop  offset="1" style="stop-color:#782063"/>
		</linearGradient>
		<polygon style="fill:url(#SVGID_00000148663567859920894170000006392941624899429013_);" points="105.1,206 105.1,116.2 
			34.9,46.8 29.4,49.6 29.4,149.2 105.1,206 		"/>
		
			<linearGradient id="SVGID_00000033340519352537612970000014643384139767410604_" gradientUnits="userSpaceOnUse" x1="106.5337" y1="88.0146" x2="46.8445" y2="147.7037">
			<stop  offset="2.297375e-02" style="stop-color:#EA1F27"/>
			<stop  offset="0.4467" style="stop-color:#E71F27"/>
			<stop  offset="0.7497" style="stop-color:#DE1F27"/>
			<stop  offset="0.9905" style="stop-color:#D01F27"/>
		</linearGradient>
		<polygon style="fill:url(#SVGID_00000033340519352537612970000014643384139767410604_);" points="105.1,206 105.1,206 
			105.1,116.2 50.5,32 45,32.9 45,133.6 		"/>
		
			<linearGradient id="SVGID_00000089569646527484355380000007864966533748654250_" gradientUnits="userSpaceOnUse" x1="40.5308" y1="32.3813" x2="131.8614" y2="190.5706">
			<stop  offset="8.750847e-02" style="stop-color:#EE4037"/>
			<stop  offset="0.5838" style="stop-color:#EC3E37"/>
			<stop  offset="0.8775" style="stop-color:#E53537"/>
			<stop  offset="1" style="stop-color:#E02F37"/>
		</linearGradient>
		<polygon style="fill:url(#SVGID_00000089569646527484355380000007864966533748654250_);" points="105.1,206 105.1,116.2 
			68.2,18.7 62.6,19.6 62.6,121.1 105.1,206 		"/>
		
			<linearGradient id="SVGID_00000167373615382801959500000009342055104197012104_" gradientUnits="userSpaceOnUse" x1="105.1451" y1="108.8394" x2="83.4186" y2="108.8394">
			<stop  offset="0" style="stop-color:#F57C20"/>
			<stop  offset="5.681276e-03" style="stop-color:#F57D20"/>
			<stop  offset="0.1632" style="stop-color:#F58820"/>
			<stop  offset="0.3846" style="stop-color:#F58F20"/>
			<stop  offset="1" style="stop-color:#F59120"/>
		</linearGradient>
		<polygon style="fill:url(#SVGID_00000167373615382801959500000009342055104197012104_);" points="105.1,116.3 105.1,206 
			83.4,113.3 83.4,12.6 88.9,11.7 		"/>
	</g>
	<polygon class="st6" points="18,165.8 18,69.5 23.4,66.6 23.4,162.9 	"/>
	<polygon class="st7" points="34.9,146.5 34.9,46.8 29.4,49.6 29.4,149.2 	"/>
	<polygon class="st8" points="50.5,131 50.5,32 45,32.9 45,133.6 	"/>
	<polygon class="st9" points="68.1,119.3 68.1,18.7 62.6,19.6 62.6,121.1 	"/>
	<polygon class="st10" points="88.9,112.3 88.9,11.7 83.4,12.6 83.4,113.3 	"/>
	<g>
		<polygon class="st0" points="127.1,112.3 127.1,11.7 132.6,12.6 132.6,113.3 		"/>
		<g>
			
				<linearGradient id="SVGID_00000149349676815896830860000004023728003978604163_" gradientUnits="userSpaceOnUse" x1="100.149" y1="195.2927" x2="211.992" y2="83.4497">
				<stop  offset="0" style="stop-color:#0064EE"/>
				<stop  offset="0.2245" style="stop-color:#0E7CE9"/>
				<stop  offset="0.5097" style="stop-color:#1B94E3"/>
				<stop  offset="0.7753" style="stop-color:#23A2E0"/>
				<stop  offset="1" style="stop-color:#26A7DF"/>
			</linearGradient>
			<polygon style="fill:url(#SVGID_00000149349676815896830860000004023728003978604163_);" points="110.9,206 110.9,206 
				110.9,116.2 192.6,66.6 198,69.5 198,165.8 			"/>
			
				<linearGradient id="SVGID_00000091733691864157969160000017517524924922378933_" gradientUnits="userSpaceOnUse" x1="107.5283" y1="204.078" x2="194.2004" y2="53.9574">
				<stop  offset="0" style="stop-color:#298E93"/>
				<stop  offset="0.1016" style="stop-color:#289F85"/>
				<stop  offset="0.2283" style="stop-color:#27AA7A"/>
				<stop  offset="0.4067" style="stop-color:#27B175"/>
				<stop  offset="0.9022" style="stop-color:#27B373"/>
			</linearGradient>
			<polygon style="fill:url(#SVGID_00000091733691864157969160000017517524924922378933_);" points="110.9,206 110.9,116.2 
				181.1,46.8 186.6,49.6 186.6,149.2 110.9,206 			"/>
			
				<linearGradient id="SVGID_00000055688192834829791390000007603401095624269759_" gradientUnits="userSpaceOnUse" x1="170.8665" y1="171.3509" x2="109.1724" y2="64.4936">
				<stop  offset="0" style="stop-color:#298E93"/>
				<stop  offset="4.744637e-02" style="stop-color:#218F84"/>
				<stop  offset="0.1404" style="stop-color:#15906E"/>
				<stop  offset="0.2488" style="stop-color:#0B915C"/>
				<stop  offset="0.3804" style="stop-color:#059250"/>
				<stop  offset="0.5594" style="stop-color:#019249"/>
				<stop  offset="1" style="stop-color:#009247"/>
			</linearGradient>
			<polygon style="fill:url(#SVGID_00000055688192834829791390000007603401095624269759_);" points="110.9,206 110.9,206 
				110.9,116.2 165.5,32 171,32.9 171,133.6 			"/>
			<polygon class="st14" points="110.9,206 110.9,116.2 147.8,18.7 153.4,19.6 153.4,121.1 110.9,206 			"/>
			
				<linearGradient id="SVGID_00000108991055913950016690000004110771144039298436_" gradientUnits="userSpaceOnUse" x1="118.8604" y1="205.9986" x2="118.8604" y2="11.6803">
				<stop  offset="0" style="stop-color:#B9DD26"/>
				<stop  offset="4.371249e-02" style="stop-color:#C3DD26"/>
				<stop  offset="0.1466" style="stop-color:#D4DD26"/>
				<stop  offset="0.2746" style="stop-color:#DFDD26"/>
				<stop  offset="0.4543" style="stop-color:#E6DD26"/>
				<stop  offset="0.9533" style="stop-color:#E8DD26"/>
			</linearGradient>
			<polygon style="fill:url(#SVGID_00000108991055913950016690000004110771144039298436_);" points="110.9,116.3 105.1,116.2 
				105.1,206 110.9,206 132.6,113.3 132.6,12.6 127.1,11.7 			"/>
		</g>
		<polygon class="st16" points="198,165.8 198,69.5 192.6,66.6 192.6,162.9 		"/>
		<polygon class="st17" points="181.1,146.5 181.1,46.8 186.6,49.6 186.6,149.2 		"/>
		<polygon class="st18" points="165.5,131 165.5,32 171,32.9 171,133.6 		"/>
		<polygon class="st19" points="147.9,119.3 147.9,18.7 153.4,19.6 153.4,121.1 		"/>
		<polygon class="st20" points="127.1,112.3 127.1,11.7 132.6,12.6 132.6,113.3 		"/>
	</g>
	<g>
		<rect x="105.1" y="10" class="st21" width="5.7" height="98.2"/>
		
			<linearGradient id="SVGID_00000148654630015597644000000011275826211490054821_" gradientUnits="userSpaceOnUse" x1="108" y1="108.242" x2="108" y2="205.9986">
			<stop  offset="0.5779" style="stop-color:#F4D532"/>
			<stop  offset="0.884" style="stop-color:#F4D332"/>
			<stop  offset="1" style="stop-color:#F4CD32"/>
		</linearGradient>
		
			<rect x="105.1" y="108.2" style="fill:url(#SVGID_00000148654630015597644000000011275826211490054821_);" width="5.7" height="97.8"/>
	</g>
</g>
</svg>
