<?xml version="1.0" encoding="utf-8"?>
<!-- Generator: Adobe Illustrator 19.0.0, SVG Export Plug-In . SVG Version: 6.00 Build 0)  -->
<svg version="1.1" id="Capa_1" xmlns="http://www.w3.org/2000/svg" xmlns:xlink="http://www.w3.org/1999/xlink" x="0px" y="0px"
	 viewBox="0 0 595.3 841.9" style="enable-background:new 0 0 595.3 841.9;" xml:space="preserve">
<style type="text/css">
	.st0{fill:#EDEDED;stroke:#EDEDED;stroke-width:6;stroke-miterlimit:10;}
	.st1{fill:#F6F6F6;}
	.st2{fill:#EDEDED;}
</style>
<g id="XMLID_1_">
	<line id="XMLID_561_" class="st0" x1="314.9" y1="226.3" x2="539.6" y2="226.3"/>
	<line id="XMLID_562_" class="st0" x1="57.5" y1="592.2" x2="282.3" y2="592.2"/>
	<path id="XMLID_55_" class="st1" d="M57.5,477.3V203.8h110.3c28.3,0,49.6,5.6,63.8,16.7c14.2,11.1,21.3,27.8,21.3,49.9
		c0,14.2-3.3,26.3-9.8,36.3c-6.6,10-16.3,17.6-29.3,22.9c16.5,3.1,29.3,10.4,38.4,22c9.2,11.6,13.7,26.2,13.7,43.9
		c0,25-8.3,44.9-24.9,59.6c-16.6,14.7-39.1,22.1-67.6,22.1H57.5z M94.7,318.8h65.2c19.2,0,33.3-3.5,42.3-10.4
		c9-6.9,13.6-17.8,13.6-32.5c0-13.9-4.3-24.1-13-30.8c-8.7-6.7-22-10-39.9-10H94.7V318.8z M94.7,444.3H170
		c18.9,0,33.3-4.2,43.1-12.5c9.8-8.4,14.7-20.5,14.7-36.5c0-15.8-5-27.5-14.9-34.9c-10-7.4-25.7-11.1-47.1-11.1H94.7V444.3z"/>
	<path id="XMLID_59_" class="st1" d="M483.5,588.4c-10.1,5.5-20.5,9.6-31.4,12.4c-10.9,2.7-22.4,4.1-34.6,4.1
		c-38.4,0-68.4-12-90.2-36.1c-21.7-24.1-32.6-57.4-32.6-100.2c0-42.7,10.9-76.1,32.6-100.2c21.7-24.1,51.8-36.1,90.2-36.1
		c38,0,67.9,12.1,89.6,36.3c21.7,24.2,32.6,57.5,32.6,100c0,21-2.8,39.8-8.3,56.4c-5.5,16.7-13.9,31.8-25.3,45.2l31.1,26l-17.4,21.9
		L483.5,588.4z M455.2,566.1l-28.4-23.7l17.2-21.9l34.6,28.3c8.1-8.8,14.2-20,18.4-33.7c4.2-13.7,6.3-29.1,6.3-46.3
		c0-33.2-7.6-59.2-22.7-77.8c-15.2-18.6-36.2-27.9-63.1-27.9c-27,0-48.2,9.3-63.5,27.9c-15.3,18.6-22.9,44.5-22.9,77.8
		c0,33.1,7.6,59,22.9,77.7c15.3,18.7,36.4,28,63.5,28c7.1,0,13.8-0.7,20-2C443.7,571,449.6,568.9,455.2,566.1z"/>
	<g id="XMLID_4_">
		<path id="XMLID_54_" class="st2" d="M245.4,644.4h-1.1c-0.3-1.6-0.9-3-1.9-4.1c-1-1.2-2.4-1.8-4.1-1.8c-1,0-2,0.3-2.8,0.9
			c-0.8,0.6-1.3,1.5-1.3,2.5c0,1.3,0.5,2.3,1.5,3c1,0.7,2.1,1.4,3.4,2.1c0.2,0.1,0.5,0.2,0.7,0.4c0.2,0.1,0.5,0.2,0.7,0.4
			c1.6,0.8,3.1,1.7,4.4,2.9c1.3,1.1,2,2.7,2,4.9s-0.7,3.9-2,5.4c-1.4,1.5-3.1,2.2-5.3,2.2c-1.3,0-2.5-0.2-3.6-0.7
			c-1.1-0.5-2.2-1.1-3.1-2c-0.2,0.3-0.3,0.7-0.5,1s-0.3,0.7-0.3,1h-1.1v-7.7h1.1c0,0,0,0,0,0.1c0,0,0,0,0,0.1c0.2,1.7,1,3.2,2.2,4.6
			c1.3,1.4,2.8,2.1,4.6,2.1c1.4,0,2.6-0.4,3.7-1.1c1.1-0.7,1.7-1.9,1.7-3.4s-0.6-2.8-1.8-3.6c-1.2-0.9-2.5-1.6-4-2.4
			c-0.1,0-0.2-0.1-0.3-0.1c-0.1,0-0.2-0.1-0.3-0.2c-1.6-0.8-3.1-1.6-4.4-2.7c-1.3-1-2-2.5-2-4.5c0-1.9,0.7-3.4,2.1-4.6
			c1.4-1.1,3-1.7,4.8-1.7c1,0,2,0.1,2.9,0.4c0.9,0.3,1.8,0.7,2.6,1.4c0.1-0.2,0.2-0.3,0.3-0.5c0.1-0.2,0.2-0.4,0.3-0.6
			c0-0.1,0.1-0.1,0.1-0.2c0-0.1,0.1-0.1,0.1-0.2h0.9V644.4z"/>
		<path id="XMLID_63_" class="st2" d="M254.5,662.5v-1.1c1.2,0,2.1-0.2,2.8-0.5c0.6-0.3,0.9-1.1,0.9-2.4v-19.3h-4.1
			c-1.6,0-2.7,0.5-3.3,1.4c-0.7,0.9-1.2,2-1.6,3.4h-1.1l0.6-6h22.6l0.6,6h-1.1c-0.4-1.3-1-2.4-1.6-3.4c-0.7-0.9-1.8-1.4-3.3-1.4
			h-4.1v19.3c0,1.4,0.3,2.2,0.9,2.5c0.6,0.3,1.5,0.4,2.6,0.5c0,0,0.1,0,0.1,0c0,0,0.1,0,0.1,0v1.1H254.5z"/>
		<path id="XMLID_65_" class="st2" d="M297.1,638v1.1c0,0-0.1,0-0.1,0c0,0-0.1,0-0.1,0c-0.1,0-0.3,0-0.4,0.1c-0.1,0-0.3,0-0.4,0.1
			c-0.3,0-0.6,0.1-0.9,0.1c-0.3,0.1-0.6,0.2-0.8,0.3c-0.3,0.2-0.5,0.4-0.6,0.7c-0.1,0.3-0.2,0.6-0.2,1c0,0.1,0,0.3,0,0.5
			c0,0.2,0,0.3,0,0.5v11.9c0,2.6-0.5,4.8-1.5,6.4s-3,2.5-6,2.5c-3.4,0-5.9-0.5-7.5-1.6c-1.6-1.1-2.3-3.5-2.3-7.2V642
			c0-1.4-0.3-2.2-0.9-2.5c-0.6-0.3-1.5-0.4-2.7-0.5c0,0,0,0-0.1,0c0,0,0,0-0.1,0V638h11v1.1c-0.1,0-0.2,0-0.3,0c-0.1,0-0.2,0-0.2,0
			c0,0,0,0-0.1,0c0,0,0,0-0.1,0c-0.8,0-1.5,0.2-2.1,0.5c-0.6,0.3-0.9,1.1-0.9,2.5v11.8c0,2.3,0.3,4.2,1,5.7c0.7,1.5,2.4,2.3,5.1,2.3
			c2.6,0,4.2-0.7,5-2.2c0.7-1.5,1.1-3.3,1.1-5.5v-0.3v-11.6c0-1.4-0.3-2.2-0.9-2.5c-0.6-0.3-1.5-0.6-2.8-0.7V638H297.1z"/>
		<path id="XMLID_67_" class="st2" d="M298.1,638c0.4,0,0.8,0,1.2,0c0.4,0,0.8,0,1.2,0c0.4,0,0.8,0,1.3,0c0.4,0,0.8,0,1.2,0
			c0.4,0,0.8,0,1.2,0s0.8,0,1.2,0c0.4,0,0.8,0,1.2,0s0.8,0,1.2,0c0.4,0,0.8,0,1.3,0s0.9,0,1.3,0c0.7,0,1.5,0.1,2.2,0.2
			s1.4,0.3,2.1,0.5c2.6,0.9,4.6,2.4,6,4.5c1.4,2.1,2.1,4.5,2.1,7.2c0,3.6-1.1,6.6-3.4,8.8c-2.3,2.2-5.2,3.3-8.8,3.3h-12.5v-1.1
			c0,0,0,0,0.1,0s0,0,0.1,0c1.2,0,2.1-0.2,2.7-0.5c0.6-0.3,0.9-1.1,0.9-2.4V642c0-1.4-0.3-2.2-0.9-2.4c-0.6-0.3-1.5-0.4-2.7-0.5
			c0,0,0,0-0.1,0s0,0-0.1,0V638z M305.4,657.2c0,1.8,0.3,2.9,0.9,3.4c0.6,0.4,1.7,0.7,3.5,0.7c3.2,0,5.5-1.1,6.8-3.3
			c1.3-2.2,1.9-4.7,1.9-7.6c0-3.5-0.8-6.3-2.5-8.3c-1.7-2-4.3-3-7.9-3c-0.2,0-0.4,0-0.7,0c-0.2,0-0.4,0-0.6,0c-0.2,0-0.4,0-0.7,0
			c-0.2,0-0.4,0-0.7,0.1V657.2z"/>
		<path id="XMLID_70_" class="st2" d="M325,662.5v-1.1c0,0,0,0,0.1,0c0,0,0,0,0.1,0c1.2,0,2.1-0.2,2.7-0.5c0.6-0.3,0.9-1.1,0.9-2.4
			V642c0-1.4-0.3-2.2-0.9-2.4c-0.6-0.3-1.5-0.4-2.7-0.5c0,0,0,0-0.1,0c0,0,0,0-0.1,0V638h11v1.1c-0.2,0-0.4,0-0.6,0
			c-0.2,0-0.4,0-0.6,0.1c-0.3,0-0.6,0.1-0.9,0.1c-0.3,0.1-0.6,0.2-0.8,0.3c-0.3,0.1-0.5,0.4-0.6,0.7c-0.1,0.3-0.2,0.6-0.2,0.9
			c0,0.1,0,0.3,0,0.4c0,0.1,0,0.3,0,0.4v16.4c0,1.4,0.3,2.2,0.9,2.5c0.6,0.3,1.5,0.4,2.6,0.5c0,0,0.1,0,0.1,0c0,0,0.1,0,0.1,0v1.1
			H325z"/>
		<path id="XMLID_72_" class="st2" d="M351.3,663.1c-3.7,0-6.8-1.2-9.3-3.7c-2.5-2.4-3.7-5.5-3.7-9.2c0-3.8,1.2-6.9,3.7-9.3
			c2.5-2.4,5.6-3.6,9.3-3.6c3.8,0,6.9,1.2,9.4,3.6c2.5,2.4,3.7,5.5,3.7,9.3c0,3.8-1.2,6.8-3.7,9.2
			C358.1,661.9,355,663.1,351.3,663.1L351.3,663.1z M358.1,658.4c1.3-2.3,2-4.8,2-7.6c0-0.1,0-0.2,0-0.3s0-0.2,0-0.3
			c0-0.1,0-0.2,0-0.4s0-0.2,0-0.4c-0.1-2.7-0.8-5.3-2-7.5s-3.5-3.4-6.8-3.4c-3.2,0-5.5,1.1-6.7,3.4s-2,4.8-2.1,7.5
			c0,0.1,0,0.2,0,0.4s0,0.2,0,0.4c0,0.1,0,0.1,0,0.2c0,0.1,0,0.1,0,0.2c0,2.8,0.7,5.4,2,7.7c1.3,2.3,3.5,3.5,6.8,3.5
			C354.5,661.9,356.8,660.7,358.1,658.4z"/>
	</g>
</g>
</svg>
