<?xml version="1.0" encoding="utf-8"?>
<!-- Generator: Adobe Illustrator 19.0.0, SVG Export Plug-In . SVG Version: 6.00 Build 0)  -->
<svg version="1.1" id="Capa_1" xmlns="http://www.w3.org/2000/svg" xmlns:xlink="http://www.w3.org/1999/xlink" x="0px" y="0px"
	 viewBox="0 0 1000 360" style="enable-background:new 0 0 1000 360;" xml:space="preserve">
<style type="text/css">
	.st0{fill:#4A77A0;}
	.st1{fill:#72B3AD;}
	.st2{fill:#FFFFFF;}
	.st3{fill:none;stroke:#72B3AD;stroke-width:2;stroke-linecap:round;stroke-miterlimit:10;stroke-dasharray:5,10;}
	.st4{fill:#72B3AD;stroke:#72B3AD;stroke-miterlimit:10;}
</style>
<g>
	<g id="XMLID_111_">
		<path id="XMLID_117_" class="st0" d="M97.8,237.8c-3.3,0-5.7-2.2-7.2-6.5c-0.2-0.3-0.3-1.2-0.3-2.6s0.5-4.7,1.6-9.9
			c0.4-1.4,0.8-2.9,1.1-4.3c0.3-1.4,0.7-2.9,1.1-4.3c0.4-1.4,0.9-3.1,1.3-5c0.4-1.9,0.9-3.8,1.3-5.8c0.9-4.3,1.3-7.9,1.3-10.8
			c0-4-1-6-3-6c-0.7,0-1.9,0.7-3.6,2.2c-2.8,2.9-5.9,5.6-9,8.2c-3.2,2.6-6.5,5-10,7.3L62,207.7l-6.9,5.2c-0.7,0.3-2.2,1.6-4.6,3.9
			c-2.2,1.7-4.5,2.6-6.9,2.6c-2.8,0-6-2-9.5-6c-2.6-3.5-3.9-7.1-3.9-10.8c0-3.2,1.2-7.6,3.6-13.4c1.8-3.7,4.7-8.3,8.9-13.8
			c1.7-2.3,3.2-4.4,4.4-6.3c1.2-1.9,2.2-3.4,3.1-4.5c9.2-16.1,23.4-30.4,42.6-42.7c5.5-3.7,10.4-5.6,14.8-5.6
			c4.8,0,8.6,2.6,11.5,7.8c1.3-3.5,3.4-8.4,6.4-14.9s6.2-13.6,9.8-21.4s7.1-15.1,10.5-22s6.1-12.2,8-16
			c5.9-10.6,10.7-18.7,14.4-24.2c3.7-5.2,7.1-7.8,10.2-7.8c1.1,0,2.5,0.7,4.3,2.2c1.5,1.7,2.3,4,2.3,6.9c0,4.3-1.4,9.3-4.3,15.1
			c-2.8,5.8-6.8,12.8-11.8,21.2c-0.4,0.9-1.1,1.9-2,3.2c-0.9,1.3-1.9,3-3,5c-2.4,4.6-4.9,9.4-7.5,14.5c-2.6,5-5.5,10-8.5,14.9
			c-4.4,7.5-9,15.6-13.8,24.4s-9.3,17.9-13.4,27.4c-3.7,8.6-6.9,17.5-9.5,26.5c-2.6,9.1-4.8,18.2-6.6,27.4c-0.2,2-0.4,3.7-0.5,5
			s-0.2,2.2-0.2,2.8l0.3,6.5c0.2,0.9,0.3,2.9,0.3,6C104.7,234.1,102.4,237.8,97.8,237.8z M52.8,200.8c2.4,0,4.6-0.6,6.6-1.7
			c8.3-3.7,16.2-8.5,23.6-14.2c7.4-5.8,15.3-13.5,23.6-23.3c1.1-4,2.4-8.3,3.9-12.9c1.5-4.6,3.2-9.6,4.9-15.1
			c-2.6-7.2-6.5-10.8-11.5-10.8c-3.3,0-6.8,1.4-10.5,4.3c-3.7,2.9-7.9,6.8-12.5,11.7c-4.4,4.6-8.8,9.8-13.3,15.5
			c-4.6,5.8-8.4,11.3-11.6,16.6c-3.3,5.3-5.6,9.7-6.9,13.2c-1.3,2.9-2,6.2-2,9.9C47.3,198.5,49,200.8,52.8,200.8z"/>
		<path id="XMLID_114_" class="st0" d="M153.5,210.3c-4.6,0-8.6-1.6-12.1-4.7c-5.7-5.8-8.5-14.4-8.5-25.9S136,156,142,143
			c6.1-12.9,15.4-24.9,27.9-35.8c2.2-2,5.1-3,8.9-3c4.8,0,9.1,1.7,13,5.2c3.8,3.4,5.3,7.9,4.4,13.4c-1.5,8.9-4.9,16.8-10,23.7
			c-5.1,6.9-11.2,13-18,18.3c-6.9,5.3-13.9,10.4-21.2,15.3c-0.2,0.9-0.4,1.7-0.5,2.6c-0.1,0.9-0.2,1.7-0.2,2.6c0,4,1,7.6,3.1,10.6
			s5,4.5,8.7,4.5c2.8,0,5.2-0.6,7.2-1.7c3.5-1.7,6.4-3.3,8.7-4.7c2.3-1.4,5-3.6,8-6.5c3.1-2.9,7.2-7.2,12.5-13
			c2.4-2.3,3.8-3.4,4.3-3.4c1.3,0,1.7,1.3,1.3,3.9c-2.2,4.6-6,9.6-11.3,15.1c-5.4,5.5-11.3,10.2-17.7,14.2
			C164.6,208.2,158.8,210.3,153.5,210.3z M148.9,168.4c1.7,0,5.4-2.3,10.8-6.9c5.5-4.6,10.6-9.6,15.4-15.1
			c8.3-10.1,12.5-17.8,12.5-23.3c0-1.4-0.3-2.7-1-3.9c-0.7-1.4-1.6-2.2-3-2.2c-4.2,0-11.2,6.5-21,19.4
			C155.9,145.1,151.3,155.7,148.9,168.4z"/>
		<path id="XMLID_112_" class="st0" d="M191.2,223.6c-3.5,0-6.6-0.4-9.2-1.3c-2.4-0.9-3.6-2-3.6-3.4c0-2.3,1.8-3.6,5.2-3.9
			c3.3-0.3,5.5-0.7,6.6-1.3c2-0.6,4.3-1,6.9-1.3c2.4-0.6,4.4-1,5.9-1.3c10.5-4,15.7-10.2,15.7-18.6c0-5.8-2.3-13.1-6.9-22
			c-2.8-5.5-4.3-11.5-4.3-18.1c0-8.1,1.9-16,5.7-23.7c3.8-7.8,8.6-14.6,14.4-20.5s11.6-9.8,17.5-11.9c2.6-0.9,5.4-1.3,8.2-1.3
			c4.6,0,7.9,1.4,9.8,4.3c1.3,1.7,2,5.5,2,11.2c0,4.3-0.5,8.7-1.6,13.2c-1.1,4.5-2.6,8.1-4.6,11c-1.1,1.4-2,2.2-2.6,2.2
			c-1.1,0-1.6-2-1.6-6l0.3-8.6c0.2-2.3,0.4-4.3,0.5-6s0.2-3.2,0.2-4.3c0-4.9-0.8-7.8-2.3-8.6c-1.8-0.6-3-0.9-3.6-0.9
			c-4.6,0-9.5,2.7-14.8,8.2c-5.2,5.5-9.5,11.8-12.8,19c-1.3,2.6-2,5.8-2,9.5c0,4.6,0.9,10,2.8,16.2c1.9,6.2,3.1,10.7,4,13.6
			c2.2,6.3,3.9,11.8,5.1,16.4s1.8,8.6,1.8,12.1c0,1.7-0.1,3-0.3,3.9c1.1-0.6,3.7-1.4,7.9-2.6c0.8-0.2,4.6-1.5,9.5-1.7
			c1.4-0.1,2.6,0,2.8,0.7c0.3,1-1.6,2.8-2.5,3.6c-3.1,2.9-6,4-6.1,4.1c-3.4,1.9-7.3,3.8-11.8,5.8s-8.9,3.9-13.3,5.6
			c-4.4,1.7-8.1,3-11.2,3.9C204,222.6,198,223.6,191.2,223.6z"/>
	</g>
	<path id="XMLID_110_" class="st0" d="M370.7,141.6c0.5,0.8,5.6-2.8,9.9-8.3c4.9-6.3,6.9-12.9,7.4-14.5c0.8-2.8,2.6-9.2,2-17.5
		c-0.6-6.9-2.6-11.7-3.8-14.7c-4.7-11.1-11.7-16.7-14.8-19.1c-8.1-6.3-15.5-7.5-20.2-8.3c-2.3-0.3-11-1.5-22.1,2
		c-19.1,6.1-30.9,21.6-34.9,26.9c-6,8.1-9.8,16.1-12.2,21c-1.2,2.4-5,10.6-8.7,22c-2.2,6.7-3.5,12.4-4.6,16.7
		c-0.2,0.8-0.4,1.5-0.5,2.2c-0.4,1.7-0.7,3.2-1.1,4.9c-0.5,2.1-0.4,2.1-0.7,3.5c-0.2,0.8-0.6,3-1.2,5.2c-0.9,3.8-1.9,6.8-2.3,8
		c-0.5,1.7-1.2,3.7-2.2,6.3c-1.6,4.1-3.1,7-3.4,7.7c-1.5,2.9-2.3,4.5-3.9,6.3c-0.9,1.1-2.3,2.8-4.4,4c-1.5,0.9-2.8,1.3-2.8,1.3
		c-1.2,0.4-2.4,0.7-2.4,0.9c0,0.1,0.3,0.1,0.3,0.1c1.8,0.1,6.7,3.4,7.8,2.6c0.3-0.2,0.5-0.4,0.5-0.4c0.4-0.4,0.6-0.6,0.9-0.9
		c0.2-0.3,0.5-0.6,0.9-1.1c0.5-0.6,0.8-1.1,1.3-2c0.5-0.8,0.8-1.4,0.9-1.6c0.6-1,1-1.9,1.3-2.5c0.6-1.2,1-2.1,1.2-2.7
		c0.1-0.3,0.3-0.7,0.6-1.3c0.3-0.7,0.5-1.1,0.8-1.9c0.1-0.3,0.2-0.4,0.2-0.6c0.4-0.8,0.7-1.8,2.1-5.4c0.3-0.6,0.3-0.7,0.3-0.9
		c0.8-2,2.1-5.7,4.7-14c1.9-6.1,2.1-7.3,5.1-17.2c1.2-3.9,1.7-5.8,2-6.5c3.4-9.7,7.3-16.3,9.4-20c7.1-12,14.3-19,15.8-20.5
		c2.9-2.8,7.5-7.1,14.3-10.7c2.4-1.3,10-5.1,20.4-5.8c4.4-0.3,12.1-0.7,21.3,3.2c4.9,2.1,10.5,4.6,15.5,11.6c2,2.8,5.3,7.5,6.3,14.9
		c1,8-1.2,14.5-2,16.8C373.5,137.9,370.2,140.9,370.7,141.6z"/>
	<path id="XMLID_109_" class="st1" d="M303.2,119.3c0.3,0.4-2.7,4.1-6.6,11.7c-3.2,6.2-5.1,11.3-5.7,12.9
		c-1.8,4.9-4.4,11.9-5.4,21.7c-0.9,8.6-0.2,15.3,0.5,21.5c0.4,3.8,1,9,2.7,15.6c0.5,1.8,2.7,10.2,7.7,20.1c1.2,2.4,4.4,8.3,9.6,15.1
		c9.7,12.4,18.5,17.3,18.1,18.2c-0.3,0.9-7.7-2.7-14.7-7.9c-8.2-6-13.4-12.3-14.6-13.8c-3.3-4.1-8.5-10.6-12.7-21.2
		c-5-12.4-5.8-23.3-5.9-25.5c-0.2-3.5-0.5-10.7,1-19.5c1.6-9.5,4.3-16,6.5-21.1c3.7-8.8,7.6-14.4,8.9-16.3
		C297.5,123.9,302.8,118.8,303.2,119.3z"/>
	<g id="XMLID_33_">
		<path id="XMLID_107_" class="st1" d="M310.6,213.1c-5.5,0-9.6-2.2-12.5-6.5c-0.8-1.2-3.8-5.5-4.3-16.9c-0.8-17.3,5-30.9,7.6-36.9
			c5.8-13.3,12.7-21,19.3-28.2c2.5-2.8,9.8-10.6,20.5-17c0,0,8.2-5,17.7-4.8c1.9,0,4.1,0.4,6.1,2.4c1.1,1.2,1.9,2.8,2.5,4.8
			c0.9,2.4,1.4,5.3,1.4,8.6c0,6-1.7,9-5.1,9c-1.6,0-3-1-4.3-2.9s-1.9-4.7-1.9-8.3c-2.5-1.5-5.9-0.8-10.1,2
			c-4.2,2.9-8.6,6.9-13.2,12.2c-4.6,5.3-8.9,10.8-13,16.7c-4.1,5.9-7.3,10.9-9.6,15.1c-4.1,7.5-6.2,15.8-6.2,24.8
			c0,4.2,0.8,7.7,2.4,10.4c1.6,2.7,4,4.1,7.2,4.1c3,0,6.5-1.2,10.6-3.6c3-2.1,5.8-4.1,8.4-5.9c2.6-1.8,5.1-3.4,7.4-5
			c14.1-10.5,22.1-15.8,24-15.8c0.7,0,1,0.4,1,1.3c0,0.9-0.6,2.1-1.7,3.6c-2.3,2.7-5.9,6.5-11,11.3c-5,4.8-10.4,9.3-16.1,13.5
			s-11,7.4-15.7,9.5C317.5,212.2,313.8,213.1,310.6,213.1z"/>
		<g id="XMLID_34_">
			<path id="XMLID_103_" class="st1" d="M385.2,211.7c-8.9,0-13.3-5.3-13.3-15.8c0-0.6,0.1-1.6,0.2-3.2c0.1-1.5,0.3-3.3,0.5-5.4
				c2.3-12.3,6.9-24.2,13.9-35.8c7-11.6,15-21.7,24.1-30.4c3.4-3.6,8.9-5.4,16.4-5.4c4.3,0,8.2,0.8,11.5,2.5c3.3,1.6,5.6,4.1,7,7.4
				c1.4,3,2.1,6.5,2.1,10.4c0,0.6-0.1,1.5-0.2,2.7c-0.1,1.2-0.3,2.6-0.5,4.1c0.5-0.3,1.2-0.4,2.2-0.4s2.3-0.1,3.9-0.5
				c1.6-0.3,3.1-0.6,4.6-0.9c1.5-0.3,3-0.4,4.6-0.4h1.4c2.5,0,2.8,1.3,0.9,3.8c-1.9,2.6-4.5,4.1-7.7,4.7l-11.6,1.8
				c-2.3,8.4-6.2,16.8-11.8,25.2c-5.6,8.4-11.8,15.7-18.5,21.8s-13.1,10.1-19,11.9C392.4,211.1,388.8,211.7,385.2,211.7z M395.5,196
				c2.3,0,5.5-1.4,9.8-4.3c4.2-2.8,8.6-6.7,13.2-11.5c4.6-4.8,8.7-9.9,12.3-15.3c1.1-1.5,2.3-3.4,3.4-5.6c1.1-2.3,2.4-4.6,3.8-7
				l-8.2,1.4c-12.8,2.4-24.2,3.8-34.2,4.1c-5,10.8-8.1,19.8-9.2,27c-0.2,3.9,0.6,6.8,2.4,8.6C390.4,195.1,392.7,196,395.5,196z
				 M429,144.6c1.4,0,3-0.1,5-0.2c1.9-0.1,4.2-0.4,6.7-0.7c0.2-0.6,0.3-1.9,0.3-4.1c0-5.4-1.7-9.2-5.1-11.3
				c-1.8-1.5-4.1-2.3-6.8-2.3c-3.4,0-6.9,1.4-10.4,4.3s-7.2,6.5-11.1,11C412.2,143.6,419.4,144.6,429,144.6z"/>
			<path id="XMLID_101_" class="st1" d="M456.4,211.3c-4.1,0-6.2-2.1-6.2-6.3c0-2.7,0.7-6.1,2.2-10.4c1.5-4.2,3-8.3,4.6-12.2
				c4.3-10.2,8.3-20.1,12-29.7c3.6-9.6,7.2-19.8,10.6-30.6c1.6-4.8,4-7.2,7.2-7.2c3.4,0,4.4,2.7,3.1,8.1c-1.4,4.5-2.7,8.6-4.1,12.2
				c-6.4,17.1-9.6,28.7-9.6,34.7c0,2.7,0.7,4.4,2.1,4.9c3.2-3.3,5.6-5.8,7.2-7.4c1.6-1.6,2.5-2.6,2.7-2.9c3.2-3.3,6.8-7.1,10.8-11.5
				c4-4.4,8.4-9.4,13.2-15.1c7.5-9,13.8-13.5,18.8-13.5c6.2,0,8.8,7.4,7.9,22.1c-0.2,5.7-0.2,11.3,0,16.7c0.2,1.2,0.3,2.9,0.3,5.2
				s0,4.9,0,7.9s1.4,4.5,4.1,4.5c3.2,0,6.2-1.2,8.9-3.6l7.5-6.8l7.5-6.3c0.5-0.3,1.3-0.5,2.4-0.5c1.4,0,1.4,1.4,0,4.1
				c-14.4,23.4-26.2,35.1-35.6,35.1c-1.8,0-3.7-0.5-5.5-1.4c-1.6-0.9-2.7-3.5-3.4-7.9c-0.7-4.3-1.1-9.1-1.2-14.2
				c-0.1-5.1-0.2-9-0.2-11.7l0.3-14.9c0-6.3-1.3-9.5-3.8-9.5c-5.9,0-20.5,16.1-43.8,48.2c-1.8,3-4.7,7.1-8.6,12.2
				C464.1,208.7,460.3,211.3,456.4,211.3z"/>
			<path id="XMLID_98_" class="st1" d="M589.9,209c-4.8,0-9-1.7-12.7-5c-5.9-6-8.9-15-8.9-27s3.2-24.8,9.6-38.3s16.1-26,29.1-37.4
				c2.3-2.1,5.4-3.2,9.2-3.2c5,0,9.5,1.8,13.5,5.4s5.5,8.3,4.6,14c-1.6,9.3-5.1,17.6-10.4,24.8c-5.4,7.2-11.6,13.6-18.8,19.1
				c-7.2,5.6-14.5,10.9-22.1,16c-0.2,0.9-0.4,1.8-0.5,2.7c-0.1,0.9-0.2,1.8-0.2,2.7c0,4.2,1.1,7.9,3.3,11c2.2,3.2,5.2,4.7,9.1,4.7
				c3,0,5.5-0.6,7.5-1.8c3.6-1.8,6.7-3.4,9.1-5c2.4-1.5,5.2-3.8,8.4-6.8c3.2-3,7.5-7.5,13-13.5c2.5-2.4,4-3.6,4.4-3.6
				c1.4,0,1.8,1.3,1.4,4.1c-2.3,4.8-6.2,10.1-11.8,15.8c-5.6,5.7-11.8,10.7-18.5,14.9C601.5,206.8,595.4,209,589.9,209z M585,165.4
				c1.8,0,5.6-2.4,11.3-7.2c5.7-4.8,11.1-10.1,16.1-15.8c8.7-10.5,13-18.6,13-24.3c0-1.5-0.3-2.9-1-4.1c-0.7-1.5-1.7-2.3-3.1-2.3
				c-4.3,0-11.6,6.8-21.9,20.3C592.4,141,587.5,152.2,585,165.4z"/>
			<path id="XMLID_96_" class="st1" d="M653.9,213.1c-5.5,0-9.6-2.2-12.5-6.5s-4.3-10-4.3-16.9c0-12.3,3.4-24.3,10.3-36
				c5.5-9.3,11.6-17.8,18.3-25.4c6.7-7.7,13.3-13.8,19.9-18.5c6.5-4.6,12-7,16.6-7c4.3,0,7.2,2.4,8.6,7.2c0.9,2.4,1.4,5.3,1.4,8.6
				c0,6-1.7,9-5.1,9c-1.6,0-3-1-4.3-2.9s-1.9-4.7-1.9-8.3c-2.5-1.5-5.9-0.8-10.1,2c-4.2,2.9-8.6,6.9-13.2,12.2
				c-4.6,5.3-8.9,10.8-13,16.7c-4.1,5.9-7.3,10.9-9.6,15.1c-4.1,7.5-6.2,15.8-6.2,24.8c0,4.2,0.8,7.7,2.4,10.4
				c1.6,2.7,4,4.1,7.2,4.1c3,0,6.5-1.2,10.6-3.6c3-2.1,5.8-4.1,8.4-5.9s5.1-3.4,7.4-5c14.1-10.5,22.1-15.8,24-15.8
				c0.7,0,1,0.4,1,1.3s-0.6,2.1-1.7,3.6c-2.3,2.7-5.9,6.5-11,11.3c-5,4.8-10.4,9.3-16.1,13.5c-5.7,4.2-11,7.4-15.7,9.5
				C660.8,212.2,657,213.1,653.9,213.1z"/>
			<path id="XMLID_94_" class="st1" d="M720.5,246c-1.1,0-1.7-1.3-1.7-4.1c0-0.6,0.1-1.4,0.2-2.5s0.3-2.2,0.5-3.4l14.7-48.6
				l17.5-56.7c-2.7-0.3-6.7-0.2-12,0.2s-9.7,1.1-13.3,2c-1.4,0.3-2.5,0.5-3.3,0.7s-1.4,0.2-1.9,0.2c-1.8,0-3.1-1-3.8-3.2
				c0.2-1.8,1.5-3.4,3.8-5c1.1-0.6,2.5-1.1,4.1-1.6c1.6-0.4,3.5-1,5.8-1.6c2.5-0.6,4.7-1,6.7-1.3c1.9-0.3,3.4-0.6,4.3-0.9
				c1.1-0.3,2.3-0.6,3.4-0.9c1.1-0.3,2.5-0.6,4.1-0.9c1.4-0.3,2.9-0.6,4.5-0.9s3.3-0.7,5.1-1.4c1.8-3.3,4.6-9.2,8.2-17.6
				s8.3-19.5,14-33.3c4.6-11.1,8.3-19.9,11.1-26.3c2.8-6.5,4.8-10.7,6-12.8c2.1-3.6,4.5-5.4,7.2-5.4c1.4,0,2.1,0.8,2.1,2.3
				c0,0.3-0.6,2.3-1.7,5.9c-1.4,3-3.7,8.6-6.8,16.7c-3.2,8.1-6.6,17-10.3,26.6c-3.7,9.6-7,18.6-9.9,27c-3,8.4-5,14.6-6.2,18.5
				c1.1-0.3,2.5-0.5,3.9-0.5c1.5,0,3.4,0,5.6,0c2.5,0,4.8,0.1,7,0.2c2.2,0.2,4,0.4,5.6,0.7c3.2,0.9,4.8,2.1,4.8,3.6
				c0,0.6-1,1.7-3.1,3.2c-1.1,0.6-3.3,1.2-6.5,1.8s-7.4,1.2-12.7,1.8c-1.4,0-2.9,0.1-4.5,0.2c-1.6,0.2-3.3,0.4-5.1,0.7
				c-6.8,14.7-16.2,39.2-28.1,73.4c-4.3,11.4-7.6,20.3-9.9,26.6c-2.3,6.3-3.7,10-4.1,11.3C724,244.2,722.2,246,720.5,246z"/>
			<path id="XMLID_90_" class="st1" d="M840.4,216.3c-0.5,0-0.9-0.1-1.4-0.2c-0.5-0.2-0.9-0.4-1.4-0.7c-3.2-2.1-5.3-5.1-6.2-9
				c-0.9-3.9-1.1-8.8-0.7-14.9c0.5-2.4,1-6.6,1.5-12.6c0.6-6,1.3-10.8,2.2-14.4l-17.5,22.1l-9.6,12.2c-6.6,8.7-12.1,13.1-16.4,13.1
				c-1.8,0-3.3-0.9-4.4-2.7c-2.1-3.3-3.1-7.4-3.1-12.2c0-6.3,1.3-13.1,3.8-20.3s5.5-14.2,8.9-20.9c3.4-6.8,6.5-12.4,9.2-16.9
				c6.8-11.1,13.5-19.8,20-26.1s13.3-9.5,20.4-9.5c3.9,0,7.7,0.9,11.5,2.7c3.8,1.8,7.2,4.8,10.4,9l0.3,0.4c0,0.9-0.6,1.8-1.7,2.7
				c-0.5,0.6-0.9,1.1-1.2,1.3c-0.3,0.3-0.6,0.6-0.9,0.9c-2.7,3.6-5.8,9.6-9.2,18c-3.4,8.4-6.4,17.2-8.9,26.3
				c-2.5,9.2-3.8,17-3.8,23.6c0,6,1.1,10.1,3.4,12.2c1.1,0.9,2.4,1.4,3.8,1.4c3,0,7.1-2.4,12.3-7.2c0.2-0.3,0.7-0.8,1.5-1.6
				c0.8-0.7,2-1.9,3.6-3.4c1.8-1.8,3.3-2.7,4.4-2.7s1.7,0.6,1.7,1.8c0,1.8-0.9,3.9-2.7,6.3c-1.4,1.5-2.9,3.2-4.6,5
				c-1.7,1.8-3.7,3.6-6,5.4c-3.4,3.3-7,5.9-10.6,7.9C845.7,215.3,842.7,216.3,840.4,216.3z M801.7,187.4c4.8,0,13.7-9.3,26.7-27.9
				c3.4-5.1,6.5-10,9.2-14.6c2.7-4.7,5.2-9.2,7.5-13.7c4.1-8.7,5.5-14.7,4.1-18c-0.7-1.8-2.1-2.7-4.1-2.7c-2.5,0-5.9,1.7-10.3,5.2
				c-4.3,3.5-8.7,7.9-13.2,13.3c-4.5,5.4-8.5,10.8-12.2,16.2c-2.5,4.2-5,10.1-7.5,17.6s-3.8,13.7-3.8,18.5
				C798.3,185.3,799.5,187.4,801.7,187.4z"/>
			<path id="XMLID_35_" class="st1" d="M886.3,213.6c-3,0-4.5-3.5-4.5-10.4c0-5.7,1-11.3,3.1-16.7c5.2-13.2,10-26.3,14.4-39.2
				c3-7.8,5.8-15.3,8.4-22.5s5.1-13.8,7.4-19.8c1.4-1.8,2.7-2.7,4.1-2.7c3,0,3.9,1.8,2.7,5.4c-0.5,2.1-1.1,4.6-1.9,7.4
				c-0.8,2.9-1.8,6.2-2.9,10.1c-3.7,12.6-5.8,21.5-6.5,26.6c6.4-7.5,12.9-14.5,19.7-20.9c6.7-6.5,13.1-11.8,19-16
				c5.9-4.2,11-6.3,15.1-6.3c3.6,0,5.5,2,5.5,5.8c0,3.3-1.1,6.8-3.4,10.6c-2.3,3.8-4.6,5.6-6.8,5.6c-1.1,0-2.1-0.4-2.7-1.3
				c-0.7-0.3-2.1-0.4-4.1-0.4c-7.3,0-14.9,4.7-22.9,14c-8.4,9.3-16.1,20.5-22.9,33.5c-6.8,13.1-11.9,24.4-15.1,34
				C890.2,212.5,888.3,213.6,886.3,213.6z"/>
		</g>
	</g>
	<path id="XMLID_32_" class="st2" d="M273.5,252.8"/>
	<g id="XMLID_22_">
		<path id="XMLID_31_" class="st1" d="M320.1,253.8c0.1-0.4,1.4,0.1,3.6,0.6c2.9,0.8,2.3,0.4,5.3,1.2c4.2,1.1,7.4,2.2,8.3,2.6
			c1.4,0.5,3.6,1.4,6.5,2.8c2.2,1.1,2.9,1.6,5.7,2.9c1.7,0.8,3.4,1.5,4.1,1.8c2,0.9,2.5,1,4.4,1.9c0.3,0.1,1.7,0.8,3.5,1.6
			c1.8,0.9,2.5,1.3,3.2,1.8s1.6,1.2,2.4,2.2c0.3,0.4,0.5,0.7,0.8,1.3c0.8,1.4,0.8,1.8,0.7,1.9c-0.1,0.3-0.3,0.4-0.7,0.6
			c-0.5,0.3-1,0.3-1.5,0.4c-0.6,0.1-1.1,0.1-1.7,0c-0.9-0.1-1.6-0.3-2.9-0.8s-2-0.8-3.4-1.4c-1.1-0.5-1.5-0.7-3.3-1.5
			c-1.4-0.6-2.3-1.1-3.5-1.6c-3.3-1.5-5.9-2.6-6.6-2.9c-3.5-1.5-3.1-1.3-5.2-2.3c-1.9-0.9-3.8-1.7-5.8-2.8c-2.2-1.1-3.2-1.7-3.8-2.1
			c-1.2-0.8-2.3-1.5-2.8-1.9c-1.1-0.8-1-0.8-2.5-1.9c-1.7-1.2-2-1.4-2.9-2.1C321.2,255.2,320,254.2,320.1,253.8z"/>
		<path id="XMLID_30_" class="st1" d="M326.3,260.8c0.7-0.5,1.1-0.7,1.1-1c0-0.3-0.4-0.4-1.2-0.9c-0.6-0.4-1.1-0.7-2-1.5
			c-1.1-0.8-1.5-1.3-1.6-1.1c-0.2,0.2,0.1,0.7,0,1.5c0,0.5-0.2,0.7-0.9,2.1c-0.7,1.2-0.9,1.5-1.3,2.3c-0.4,0.7-0.6,1.1-0.8,1.7
			c-0.4,0.9-0.6,1.6-0.4,2c0.2,0.3,0.7,0.3,1,0.3c0.4,0,0.7-0.2,0.9-0.3c0.7-0.4,1.2-0.9,1.8-1.6c0.5-0.5,1-1,1.5-1.5
			C325.5,261.5,326.1,260.8,326.3,260.8z"/>
		<path id="XMLID_28_" class="st1" d="M343.4,261.3c-0.2-0.7,0.4-1.2,1.2-3.5c0.5-1.4,0.7-2.6,0.8-3.4c0.2-1,0.2-1.6,0.4-3.5
			c0.4-5.1,0.3-4.3,0.4-5.2c0.2-3.2,0.3-4.7,0.3-5.5c0-1.4,0.1-2.8,0.1-4.2c0-1.1-0.1-2.2,0.2-2.4c0.1-0.1,0.2,0,0.7,0.3
			c0.7,0.5,1.1,0.9,1.4,1.2c1,0.9,1.1,0.9,1.4,1.4c0.1,0.1,0.2,0.5,0.4,1.3c0.3,0.9,0.4,1.3,0.5,1.5c0.2,0.9,0.2,1.6,0.2,2.3
			c0,1.3,0.1,2.7,0.1,4c0,0.5,0,0.7,0.3,4.3c0.2,3.3,0.4,5,0.4,5.6c0.3,2.9,0.5,4.5,0.6,5c0.2,1.5,0.3,2.2,0.5,2.8
			c0.3,1.5,0.7,2.2,0.5,2.5c-0.2,0.2-0.6,0-1.4-0.4c-1-0.5-2-0.9-3-1.3c-1-0.5-1.8-0.8-2.8-1.2C344.3,262,343.6,262.1,343.4,261.3z"
			/>
		<path id="XMLID_24_" class="st1" d="M341.9,266.8c-0.5,0.4-0.2,1.3-0.7,3.7c-0.3,1.5-0.7,2.6-1,3.3c-0.3,0.9-0.6,1.4-1.4,3.1
			c-2.1,4.3-1.8,3.7-2.2,4.4c-1.3,2.6-2,4-2.3,4.5c-0.7,1.1-1.2,2.3-1.9,3.4c-0.5,0.8-1.2,1.6-1,2.1c0.1,0.1,0.2,0.2,0.7,0.3
			c0.8,0.2,1.3,0.2,1.7,0.2c1.2,0.1,1.3,0.2,1.7,0.1c0.1,0,0.4-0.2,0.9-0.6c0.6-0.4,0.9-0.7,1.1-0.8c0.6-0.5,0.9-1.1,1.2-1.6
			c0.6-1.1,1.3-2,2-3c0.2-0.4,0.4-0.5,2.2-3.1c1.8-2.4,2.6-3.6,3-4.1c1.6-2,2.5-3.1,2.8-3.4c0.9-1,1.3-1.5,1.7-1.8
			c1-0.9,1.6-1.1,1.6-1.5c0-0.3-0.5-0.5-1.3-0.8c-1-0.4-2-1-3-1.4c-1-0.5-1.8-0.8-2.8-1.4C342.8,267.2,342.3,266.5,341.9,266.8z"/>
		<path id="XMLID_23_" class="st1" d="M328,254.2c0.3,1,0.5,1.5,0.3,1.7c-0.2,0.2-0.5,0-1.4-0.4c-0.6-0.2-1.2-0.4-2.2-0.6
			c-1.2-0.3-1.7-0.3-1.8-0.6c0-0.3,0.4-0.4,0.7-1.1c0.2-0.4,0.2-0.7,0.3-2.4c0.1-1.4,0.1-1.9,0.2-2.9c0.1-0.8,0.1-1.3,0.2-2
			c0.2-1,0.3-1.8,0.7-1.9c0.3-0.1,0.7,0.4,0.9,0.7c0.3,0.4,0.4,0.8,0.5,1c0.4,1,0.4,1.8,0.6,2.7c0.1,0.8,0.2,1.6,0.4,2.4
			C327.8,252.8,327.9,253.8,328,254.2z"/>
	</g>
	<line id="XMLID_21_" class="st3" x1="374.3" y1="276.6" x2="775" y2="276.6"/>
	<g id="XMLID_4_">
		<path id="XMLID_19_" class="st4" d="M785.2,247c6.2,0.6,9.3,5.6,9.3,15c0,9.4-2.4,19.9-7.3,31.5c-1.6,3.8-3.4,7.5-5.5,11.1
			c-0.7,1.2-1.3,1.8-1.8,1.8c-1.1,0-1.7-0.6-1.9-1.8c-0.8-7.3-1.4-13.9-1.9-19.9s-1.2-13.3-2.1-21.9c0.1-0.6,0.4-1.1,0.8-1.5
			c0.4-0.4,0.7-0.6,1.1-0.6c0.6,0,1,0.5,1.2,1.5c0.5,5.7,1,11.7,1.6,18c0.6,6.2,1.2,12.9,1.9,19.9c3.2-6.7,5.5-12,6.8-15.9
			c2.6-8,3.9-15.1,3.9-21.3c0-6.2-1.4-10-4.1-11.3c-0.8-0.4-1.5-0.7-2.2-0.8c-0.7-0.1-1.1-0.3-1.4-0.4c-0.2-0.2-0.4-0.5-0.4-1
			C783.4,247.8,784,247.2,785.2,247z"/>
		<path id="XMLID_16_" class="st4" d="M802,267.1v-0.9c0-0.4-0.2-1.4-0.5-2.9c0-0.7,0.2-1.4,0.6-2s0.8-0.9,1.4-0.9s1,0.4,1.3,1.3
			s0.5,1.9,0.5,2.9c0,1.1-1,7.4-3.1,19c-2.1,11.6-3.1,17.7-3.1,18.3c0,0.6,0.2,0.9,0.7,0.9c0.3,0,0.7-0.4,1.2-1.1s1-1.1,1.3-1.1
			c0.7,0,1.1,0.6,1.1,1.8c0,1.2-0.7,2.2-2,3.1s-2.3,1.3-2.9,1.3c-1.5,0-2.3-1.6-2.3-4.8c0-0.7,0.1-1.4,0.3-2.2
			c0.2-0.8,0.4-1.9,0.7-3.4c0.2-1.4,0.6-3.4,1-5.9s0.9-5.1,1.3-7.7s1-5.9,1.6-9.7C801.7,269.5,802,267.3,802,267.1z M806.7,247.1
			c1.3,0,1.9,0.8,1.9,2.5c0,2.5-0.7,3.8-2,4.2c-0.4,0.1-0.8,0.1-1.2,0.1s-0.9-0.3-1.3-0.9s-0.7-1.3-0.7-2.2s0.3-1.8,1-2.6
			C805,247.5,805.9,247.1,806.7,247.1z"/>
		<path id="XMLID_13_" class="st4" d="M813.3,306.1c-2.5,0-3.8-2.1-3.8-6.3c0-4.2,1.2-9.4,3.6-15.5c2.4-6.1,5.2-11.4,8.4-15.8
			c3.2-4.4,5.8-6.7,7.9-6.7s3.2,1.2,3.5,3.5c0.1,0.7,0.2,1.5,0.2,2.3c0.2-0.2,0.4-0.3,0.7-0.3c1,0,1.5,0.6,1.5,1.9v0.3
			c0,0.1-0.3,1.4-0.8,3.9s-1.2,6.6-1.9,12.4c-0.7,5.8-1,10.8-1,14.9c0.2,0.2,0.4,0.4,0.7,0.6c0.3,0.2,0.6,0.5,1,1s0.6,1,0.6,1.6
			s-0.1,1.1-0.4,1.6s-0.7,0.7-1.2,0.7c-1.1,0-2-0.7-2.9-2.1c-0.9-1.4-1.3-3-1.3-4.6c0-3.6,0.7-9.7,2.2-18.4
			c-1.8,5.1-4.2,10-7.2,14.7c-2.9,4.7-5,7.6-6.1,8.7C815.9,305.5,814.5,306.1,813.3,306.1z M812.8,299.8c0,1.1,0.3,1.6,1,1.6
			c0.5,0,0.9-0.2,1.2-0.6c4.5-5.1,8.5-12.1,12.1-21.1c2-5.1,3.1-8.1,3.2-8.9c0.1-0.8,0.2-1.4,0.2-2c0-0.5-0.1-1.1-0.3-1.5
			c-0.2-0.5-0.5-0.7-0.9-0.7s-1,0.3-1.7,0.8c-1.7,1.2-3.7,3.8-6.2,7.7c-2.4,3.9-4.5,8.2-6.1,12.8S812.8,296.5,812.8,299.8z"/>
		<path id="XMLID_10_" class="st4" d="M817.8,336.8c1.4,0.7,3.3,1.1,5.7,1.1c8.7,0,14.1-7.5,16.3-22.5c3.2-22.4,5.5-39.7,6.7-52.1
			c0.1-0.7,0.4-1.2,0.7-1.5c0.3-0.3,0.8-0.5,1.1-0.5c0.8,0,1.1,0.5,1.1,1.5l-1.4,13.2c-2.4,22.7-4.7,38.4-6.8,47.1
			c-1.8,7.3-4.5,12.4-8,15.5c-2.8,2.4-6.3,3.6-10.3,3.6c-2.4,0-4.4-0.6-6-1.7c-0.5-0.3-0.7-0.8-0.7-1.3s0.2-1,0.5-1.5
			C817,337.3,817.4,337,817.8,336.8z M850,247.6c0.8,0,1.4,0.4,1.8,1.1c0.4,0.7,0.6,1.6,0.6,2.5c0,0.9-0.3,1.7-0.9,2.2
			s-1.2,0.8-1.8,0.8s-1.2-0.4-1.6-1.2c-0.5-0.8-0.7-1.6-0.7-2.4s0.2-1.5,0.7-2.1C848.6,247.9,849.2,247.6,850,247.6z"/>
		<path id="XMLID_7_" class="st4" d="M868.7,298.8c0.8,0,1.1,0.5,1.1,1.6c0,1.2-1.1,2.6-3.4,4.2c-2.3,1.5-4.2,2.3-5.7,2.3
			s-2.7-0.3-3.4-1c-0.7-0.7-1.4-1.6-1.9-2.7c-0.9-2.3-1.4-5-1.4-8.3c0-5.7,0.7-11.1,2-16.2c1.3-5.1,3-9.3,5.2-12.6
			c2.2-3.3,4.5-5,7-5c1.3,0,2.4,0.7,3.2,2.2c0.8,1.5,1.2,3.2,1.2,5.2c0,3.7-0.7,6.9-2.2,9.5s-3.3,4.7-5.5,6.4
			c-2.2,1.7-4.7,3.2-7.5,4.7l-0.1,6.3c0,4.9,1.1,7.4,3.4,7.4c1.2,0,2.5-0.5,3.8-1.4s2.3-1.6,2.9-2C868,299,868.4,298.8,868.7,298.8z
			 M869.5,268.8c0-2.3-0.7-3.4-2.2-3.4c-1.3,0-2.8,1.5-4.6,4.6c-1.8,3.1-3.2,7.2-4.4,12.2c-0.3,1.2-0.4,2.2-0.5,2.8
			c0.9-0.6,1.8-1.2,2.7-1.8s1.8-1.2,2.7-1.8c2-1.5,3.5-3.2,4.6-5.1C869,274.3,869.5,271.8,869.5,268.8z"/>
		<path id="XMLID_5_" class="st4" d="M886,265.1c-2.2,0-3.3,1.7-3.3,5c0,2.2,0.4,4.5,1.2,6.8c0.8,2.3,1.4,4.2,2,5.6
			c2.1,5.5,3.2,9.7,3.2,12.7c0,2.9-0.7,5.4-2,7.5s-3.3,3.3-5.8,3.7h-0.3c-2.5,0-4.2-2-5.3-6c0-0.1-0.1-0.3-0.1-0.4v-0.4
			c0-0.6,0.1-1.1,0.4-1.5s0.6-0.6,0.9-0.7h0.4c0.4,0,0.8,0.2,1.1,0.7c0.3,0.5,0.5,1,0.8,1.5c0.2,0.6,0.5,1.1,0.8,1.5
			c0.3,0.5,0.8,0.7,1.5,0.7c1.5,0,2.7-0.6,3.5-1.8c0.9-1.2,1.3-2.6,1.3-4.1s-0.2-2.9-0.5-4.2c-0.5-2.2-1.5-4.9-2.8-8.2
			c-2.2-5.4-3.3-9.6-3.3-12.6s0.6-5.5,1.7-7.4c1.2-1.9,2.8-2.9,4.9-2.9c1.3,0,2.4,0.4,3.4,1.1c1.8,1.3,2.6,2.9,2.6,4.5
			c0,1.6-0.5,2.5-1.6,2.5c-0.4,0-0.7-0.2-1-0.6c-0.2-0.4-0.5-0.8-0.8-1.3C888,265.7,887,265.1,886,265.1z"/>
	</g>
</g>
</svg>
