<?xml version="1.0" standalone="no"?>
<!DOCTYPE svg PUBLIC "-//W3C//DTD SVG 20010904//EN"
 "http://www.w3.org/TR/2001/REC-SVG-20010904/DTD/svg10.dtd">
<svg version="1.0" xmlns="http://www.w3.org/2000/svg"
 width="180.000000pt" height="180.000000pt" viewBox="0 0 180.000000 180.000000"
 preserveAspectRatio="xMidYMid meet">

<g transform="translate(0.000000,180.000000) scale(0.100000,-0.100000)"
fill="#fff" stroke="none">
<path d="M184 1196 c-17 -8 -34 -21 -38 -31 -3 -9 -6 -97 -6 -196 l0 -179 25
0 c14 0 37 11 50 25 23 22 25 31 25 127 l1 103 86 -93 87 -93 87 93 88 93 1
-127 0 -128 25 0 c14 0 37 11 50 25 24 24 25 28 25 180 0 87 -5 165 -10 175
-6 11 -28 25 -50 31 l-39 12 -53 -59 c-29 -32 -69 -76 -89 -98 l-35 -38 -85
96 c-46 52 -91 96 -99 95 -8 0 -29 -6 -46 -13z"/>
<path d="M730 1205 c0 -18 33 -66 53 -77 13 -8 75 -15 162 -18 l140 -5 0 -105
0 -105 -127 -3 -128 -3 0 91 0 90 -50 0 -50 0 0 -140 0 -140 183 0 c202 0 230
7 262 69 24 47 21 246 -4 287 -34 56 -68 64 -265 64 -97 0 -176 -2 -176 -5z"/>
<path d="M1230 1195 c0 -27 22 -63 47 -74 14 -6 85 -11 173 -11 l150 0 6 -27
c14 -54 4 -58 -195 -61 l-181 -2 0 -115 0 -115 50 0 50 0 0 70 0 70 149 0
c144 0 151 1 178 24 75 63 57 215 -29 245 -18 6 -108 11 -214 11 -154 0 -184
-2 -184 -15z"/>
</g>
</svg>
